<?xml version="1.0" encoding="UTF-8" standalone="no"?>
<!DOCTYPE svg PUBLIC "-//W3C//DTD SVG 1.1//EN" "http://www.w3.org/Graphics/SVG/1.1/DTD/svg11.dtd">
<svg width="100%" height="100%" viewBox="0 0 199 104" version="1.1" xmlns="http://www.w3.org/2000/svg" xmlns:xlink="http://www.w3.org/1999/xlink" xml:space="preserve" xmlns:serif="http://www.serif.com/" style="fill-rule:evenodd;clip-rule:evenodd;stroke-linejoin:round;stroke-miterlimit:2;">
    <g transform="matrix(1.33333,0,0,1.33333,0,0)">
        <g id="Artboard1" transform="matrix(1,0,0,1,0,12)">
            <rect x="0" y="-12" width="149" height="78" style="fill:none;"/>
            <g transform="matrix(1.33333,0,0,1.33333,0,-0.646734)">
                <path id="path1305" d="M42.636,24.164L44.795,24.164L50.459,10.724L49.381,8.163L42.636,24.164ZM51.535,13.278L46.949,24.164L56.119,24.164L51.535,13.278ZM41.73,26.316L35.365,41.385L33.211,41.385L49.377,3.041L58.271,24.164L60.425,24.164L50.455,0.485L52.607,0.485L63.483,26.316L41.73,26.316ZM54.758,0.485L71.342,39.871L72.71,38.011L56.913,0.485L54.758,0.485ZM46.149,0.485L30.327,38.011L31.696,39.871L48.301,0.485L46.149,0.485ZM42.98,28.47L37.537,41.385L39.691,41.385L42.413,34.928L60.651,34.928L63.37,41.385L65.522,41.385L61.897,32.776L43.319,32.776L44.225,30.622L63.144,30.622L67.676,41.385L69.828,41.385L64.39,28.47L42.98,28.47ZM4.306,41.385L6.458,41.385L6.458,30.622L8.612,30.622L8.612,39.579L10.764,37.425L10.764,30.622L27.259,30.622L27.259,28.47L4.306,28.47L4.306,41.385ZM30.501,19.858L10.764,19.858L10.764,11.249L28.347,11.249L30.501,9.095L10.764,9.095L10.764,6.943L32.291,6.943L32.291,4.789L8.612,4.789L8.612,22.012L28.376,22.012L30.501,19.858ZM6.458,2.637L32.291,2.637L32.291,0.485L4.306,0.485L4.306,26.316L27.259,26.316L27.259,24.164L6.458,24.164L6.458,2.637ZM0,4.445L2.154,2.291L2.154,41.385L0,41.385L0,4.445ZM91.525,38.696C98.062,38.696 102.652,33.854 102.657,27.322L102.657,2.291L100.505,4.445L100.505,25.24C100.505,29.401 97.13,32.238 92.969,32.238C88.46,32.238 85.435,29.989 85.435,25.24L85.435,0.485L83.284,0.485L83.284,25.24C83.284,31.207 87.221,34.39 92.969,34.39C95.157,34.39 97.813,33.309 99.617,31.406L99.666,31.469C97.973,34.607 95.557,36.542 91.525,36.542C85.732,36.542 81.13,32.398 81.13,26.282L81.13,0.485L78.978,0.485L78.978,26.298C78.978,33.617 84.583,38.696 91.525,38.696M109.114,0.485L109.114,25.24C109.114,31.002 106.545,35.952 100.548,39.747L100.5,39.683C104.44,36.557 106.963,32.543 106.963,27.358L106.963,0.485L104.811,0.485L104.811,27.322C104.811,35.05 98.545,40.848 90.817,40.848C83.089,40.848 76.826,35.05 76.826,27.322L76.826,2.291L74.672,4.445L74.672,27.358C74.672,36.275 81.9,42.965 90.817,42.965L92.969,42.965C101.75,42.965 111.269,36.481 111.269,25.272L111.269,0.485L109.114,0.485Z" style="fill:rgb(0,46,107);fill-rule:nonzero;"/>
            </g>
        </g>
    </g>
</svg>
