<?xml version="1.0" encoding="UTF-8" standalone="no"?>
<!DOCTYPE svg PUBLIC "-//W3C//DTD SVG 1.1//EN" "http://www.w3.org/Graphics/SVG/1.1/DTD/svg11.dtd">
<svg width="100%" height="100%" viewBox="0 0 1334 667" version="1.1" xmlns="http://www.w3.org/2000/svg" xmlns:xlink="http://www.w3.org/1999/xlink" xml:space="preserve" xmlns:serif="http://www.serif.com/" style="fill-rule:evenodd;clip-rule:evenodd;stroke-linejoin:round;stroke-miterlimit:2;">
    <g transform="matrix(1.33333,0,0,1.33333,0,0)">
        <g transform="matrix(1,0,0,1,0,54.9427)">
            <path d="M984.511,25.416L753.996,25.416L753.996,103.927L821.394,103.927L821.394,374.594L917.113,374.594L917.113,103.927L984.511,103.927L984.511,25.416ZM731.052,374.235L635.333,374.235L635.333,25.416L731.052,25.416L731.052,374.235ZM619.201,374.235L512.727,374.235L386.177,238.364L386.177,160.57L508.783,25.057L618.484,25.057L477.236,200.722L619.201,374.235Z"/>
        </g>
        <g transform="matrix(1,0,0,1,0,54.9427)">
            <path d="M90.416,153.041C72.132,175.269 56.359,199.646 44.169,225.817L363.233,374.235L90.416,153.041L90.416,153.041Z" style="fill:rgb(50,161,137);"/>
        </g>
        <g transform="matrix(1,0,0,1,0,54.9427)">
            <path d="M363.233,374.235L214.456,57.681C187.927,69.87 163.55,84.927 141.323,102.852L363.233,374.235Z" style="fill:rgb(50,161,137);"/>
        </g>
        <g transform="matrix(1,0,0,1,0,54.9427)">
            <path d="M363.233,374.235L363.591,25.416L360.724,25.416C332.402,25.416 304.798,29.001 278.269,35.454L363.233,374.235L363.233,374.235Z"/>
        </g>
        <g transform="matrix(1,0,0,1,0,54.9427)">
            <path d="M21.226,288.912C14.056,316.159 10.471,344.838 10.112,374.235L363.233,374.235L21.226,288.912L21.226,288.912Z" style="fill:rgb(50,161,137);"/>
        </g>
    </g>
</svg>
