<?xml version="1.0" encoding="UTF-8" standalone="no"?>
<!DOCTYPE svg PUBLIC "-//W3C//DTD SVG 1.1//EN" "http://www.w3.org/Graphics/SVG/1.1/DTD/svg11.dtd">
<svg width="100%" height="100%" viewBox="0 0 860 406" version="1.1" xmlns="http://www.w3.org/2000/svg" xmlns:xlink="http://www.w3.org/1999/xlink" xml:space="preserve" xmlns:serif="http://www.serif.com/" style="fill-rule:evenodd;clip-rule:evenodd;stroke-linejoin:round;stroke-miterlimit:2;">
    <g transform="matrix(1.33333,0,0,1.33333,0,0)">
        <g id="Artboard1" transform="matrix(1,0,0,1,0,110.431)">
            <rect x="0" y="-110.431" width="644.795" height="304.365" style="fill:none;"/>
            <clipPath id="_clip1">
                <rect x="0" y="-110.431" width="644.795" height="304.365"/>
            </clipPath>
            <g clip-path="url(#_clip1)">
                <g transform="matrix(1,0,0,1,0,0.569211)">
                    <rect x="-123.55" y="-85.04" width="889.62" height="255.12" style="fill:none;"/>
                </g>
                <g transform="matrix(1,0,0,1,0,0.569211)">
                    <path d="M45.45,34.42L45.45,0L61.77,0L61.77,85L45.45,85L45.45,50.74L16.31,50.74L16.31,85L0,85L0,0L16.31,0L16.31,34.42L45.45,34.42Z" style="fill:rgb(0,90,154);fill-rule:nonzero;"/>
                </g>
                <g transform="matrix(1,0,0,1,0,0.569211)">
                    <path d="M133.67,0L133.67,16.31L96.36,16.31L96.36,34.42L128.75,34.42L128.75,50.74L96.36,50.74L96.36,68.74L133.67,68.74L133.67,85L88.09,85C87.352,85.034 86.638,84.723 86.16,84.16L80.89,78.89C80.341,78.419 80.032,77.724 80.05,77L80.05,8C80.021,7.266 80.331,6.557 80.89,6.08L86.16,0.84C86.669,0.319 87.362,0.017 88.09,0L133.67,0Z" style="fill:rgb(0,90,154);fill-rule:nonzero;"/>
                </g>
                <g transform="matrix(1,0,0,1,0,0.569211)">
                    <path d="M158.9,85C158.179,85.034 157.48,84.74 157,84.2L151.73,78.93C151.166,78.453 150.855,77.738 150.89,77L150.89,0L167.2,0L167.2,68.73L202.7,68.73L202.7,85L158.9,85Z" style="fill:rgb(0,90,154);fill-rule:nonzero;"/>
                </g>
                <g transform="matrix(1,0,0,1,0,0.569211)">
                    <path d="M290.26,0L290.26,85L274,85L274,38L260.64,65.85C260.189,66.775 259.259,67.377 258.23,67.41L248.64,67.41C247.574,67.409 246.596,66.804 246.12,65.85L232.81,38L232.81,85L216.5,85L216.5,0L232.81,0L253.44,43.18L274,0L290.26,0Z" style="fill:rgb(0,90,154);fill-rule:nonzero;"/>
                </g>
                <g transform="matrix(1,0,0,1,0,0.569211)">
                    <path d="M352.92,34.42L352.92,0L369.24,0L369.24,85L352.92,85L352.92,50.74L323.78,50.74L323.78,85L307.47,85L307.47,0L323.78,0L323.78,34.42L352.92,34.42Z" style="fill:rgb(0,90,154);fill-rule:nonzero;"/>
                </g>
                <g transform="matrix(1,0,0,1,0,0.569211)">
                    <path d="M434.78,4.07L443.29,12.47C445.837,15.012 447.276,18.462 447.29,22.06L447.29,63C447.278,66.602 445.839,70.055 443.29,72.6L434.78,81.11C432.235,83.659 428.782,85.098 425.18,85.11L406.11,85.11C402.462,85.155 398.95,83.709 396.39,81.11L388,72.57C385.451,70.025 384.012,66.572 384,62.97L384,22.06C384.014,18.462 385.453,15.012 388,12.47L396.39,4.07C398.961,1.478 402.46,0.013 406.11,-0L425.18,0C428.783,0.07 432.224,1.529 434.78,4.07ZM430.94,60.81L430.94,24.35C430.916,23.624 430.615,22.933 430.1,22.42L424.94,17.15C424.383,16.659 423.68,16.364 422.94,16.31L408.27,16.31C407.552,16.358 406.872,16.655 406.35,17.15L401.19,22.42C400.629,22.9 400.319,23.612 400.35,24.35L400.35,60.81C400.343,61.54 400.649,62.239 401.19,62.73L406.35,67.89C406.843,68.428 407.541,68.733 408.27,68.73L422.9,68.73C423.651,68.725 424.37,68.422 424.9,67.89L430.06,62.73C430.57,62.213 430.881,61.533 430.94,60.81Z" style="fill:rgb(0,90,154);fill-rule:nonzero;"/>
                </g>
                <g transform="matrix(1,0,0,1,0,0.569211)">
                    <path d="M469.72,85C468.985,85.03 468.276,84.72 467.8,84.16L462.53,78.89C461.966,78.413 461.655,77.698 461.69,76.96L461.69,0L478,0L478,68.73L513.5,68.73L513.5,85L469.72,85Z" style="fill:rgb(0,90,154);fill-rule:nonzero;"/>
                </g>
                <g transform="matrix(1,0,0,1,0,0.569211)">
                    <path d="M512.33,16.31L512.33,0L573.74,0L573.74,16.31L551.19,16.31L551.19,85L534.88,85L534.88,16.31L512.33,16.31Z" style="fill:rgb(0,90,154);fill-rule:nonzero;"/>
                </g>
                <g transform="matrix(1,0,0,1,0,0.569211)">
                    <path d="M636.88,0.84L642.16,6.11C642.663,6.615 642.962,7.288 643,8L643,12.2L607.25,68.7L642.52,68.7L642.52,85L593.82,85C593.085,85.03 592.376,84.72 591.9,84.16L586.62,78.89C586.105,78.377 585.804,77.686 585.78,76.96L585.78,72.09L621.05,16.31L585.3,16.31L585.3,0L635,0C635.711,0.03 636.384,0.331 636.88,0.84Z" style="fill:rgb(0,90,154);fill-rule:nonzero;"/>
                </g>
            </g>
        </g>
    </g>
</svg>
