<?xml version="1.0" encoding="UTF-8" standalone="no"?>
<!DOCTYPE svg PUBLIC "-//W3C//DTD SVG 1.1//EN" "http://www.w3.org/Graphics/SVG/1.1/DTD/svg11.dtd">
<svg width="100%" height="100%" viewBox="0 0 182 182" version="1.1" xmlns="http://www.w3.org/2000/svg" xmlns:xlink="http://www.w3.org/1999/xlink" xml:space="preserve" xmlns:serif="http://www.serif.com/" style="fill-rule:evenodd;clip-rule:evenodd;stroke-linejoin:round;stroke-miterlimit:2;">
    <g transform="matrix(1.33333,0,0,1.33333,-45.36,-44.4133)">
        <circle cx="102.05" cy="101.34" r="68.03" style="fill:white;"/>
        <g>
            <g>
                <g>
                    <path d="M57.63,136.66C58.14,136.27 58.23,135.51 57.84,135C57.43,134.48 56.69,134.4 56.18,134.79C55.66,135.19 55.57,135.93 55.97,136.45C56.36,136.96 57.11,137.07 57.63,136.66Z" style="fill:rgb(0,55,108);fill-rule:nonzero;"/>
                    <path d="M65.9,147.71L65.44,147.33L64.71,148.19L61.33,145.35L69.27,143.34L69.5,143.06L64.98,139.27L65.2,139.01L64.74,138.63L63.54,140.05L64,140.44L64.56,139.78L67.74,142.44L59.82,144.49L59.59,144.76L64.75,149.09L65.9,147.71Z" style="fill:rgb(0,55,108);fill-rule:nonzero;"/>
                    <path d="M80.09,149.51L77.17,147.89L76.85,148.47L77.94,149.07L75.93,152.7C75.28,153.88 74.03,154.28 72.94,153.68C71.88,153.09 71.62,151.88 72.28,150.69L74.3,147.04L75.41,147.65L75.73,147.07L72.43,145.24L72.11,145.82L73.21,146.43L71.02,150.38C70.26,151.75 70.84,153.37 72.39,154.24C74.05,155.16 75.77,154.71 76.64,153.14L78.68,149.47L79.77,150.07L80.09,149.49L80.09,149.51Z" style="fill:rgb(0,55,108);fill-rule:nonzero;"/>
                    <path d="M88.02,160.03C89.55,160.41 90.61,159.92 90.92,158.68C91.22,157.47 90.51,156.52 88.98,156.09C90.16,156.38 91.18,155.9 91.42,154.94C91.7,153.81 91.01,152.87 89.64,152.53L85.71,151.55L85.56,152.15L86.77,152.45L85.21,158.7L84,158.4L83.85,159L88.01,160.04L88.02,160.03ZM87.18,156.05L88.34,156.34C89.4,156.61 89.81,157.25 89.56,158.25C89.33,159.17 88.67,159.5 87.6,159.23L86.46,158.94L87.18,156.04L87.18,156.05ZM87.99,152.8L89.13,153.09C89.92,153.29 90.23,153.84 90.02,154.65C89.81,155.47 89.17,155.87 88.36,155.67L87.33,155.41L87.98,152.8L87.99,152.8Z" style="fill:rgb(0,55,108);fill-rule:nonzero;"/>
                    <path d="M102.42,160.03L101.8,160.01L101.77,160.89L98.95,160.79L99.05,157.89L101.18,157.96L101.15,158.79L101.76,158.81L101.84,156.5L101.23,156.5L101.2,157.3L99.07,157.22L99.17,154.45L101.89,154.55L101.86,155.41L102.46,155.43L102.53,153.57L101.91,153.55L101.9,153.88L96.69,153.7L96.67,154.31L97.91,154.36L97.69,160.8L96.44,160.75L96.42,161.37L102.36,161.57L102.42,160.03Z" style="fill:rgb(0,55,108);fill-rule:nonzero;"/>
                    <path d="M115.78,159.44L115.32,159.51C114.96,159.57 114.62,159.42 114.27,159.05L112.39,157.06C113.44,156.69 113.99,155.78 113.81,154.68C113.6,153.35 112.64,152.78 111.05,153.03L107.18,153.64L107.28,154.3L108.51,154.11L109.51,160.42L108.28,160.61L108.38,161.22L112.09,160.63L111.99,160.02L110.76,160.21L110.33,157.49L111.13,157.36L113.3,159.72C113.81,160.28 113.95,160.32 114.67,160.21L115.87,160.02L115.77,159.41L115.78,159.44ZM109.76,153.92L110.91,153.74C111.76,153.61 112.3,154.04 112.45,154.96C112.59,155.86 112.18,156.55 111.39,156.67L110.23,156.85L109.76,153.91L109.76,153.92Z" style="fill:rgb(0,55,108);fill-rule:nonzero;"/>
                    <path d="M125.89,154.69L125.34,154.9L125.7,155.85L123.09,156.85L120.82,150.93L121.98,150.48L121.74,149.86L118.24,151.2L118.48,151.82L119.64,151.38L121.93,157.35L120.77,157.79L120.99,158.37L126.49,156.26L125.89,154.69Z" style="fill:rgb(0,55,108);fill-rule:nonzero;"/>
                    <path d="M133.59,151.62L132.52,152.26L129.23,146.78L130.3,146.14L129.96,145.57L126.74,147.5L127.08,148.07L128.15,147.43L131.44,152.91L130.37,153.55L130.69,154.08L133.91,152.14L133.59,151.62Z" style="fill:rgb(0,55,108);fill-rule:nonzero;"/>
                    <path d="M139.93,138.37L140.84,137.52L140.38,137.03L137.94,139.31L138.39,139.79L139.32,138.93L142.56,142.41L135.45,141.63L133.88,143.09L134.34,143.58L135.19,142.79L135.73,142.87L139.79,147.23L138.88,148.08L139.3,148.53L141.74,146.26L141.32,145.81L140.4,146.67L137.06,143.09L144.43,143.93L144.8,143.59L139.93,138.37Z" style="fill:rgb(0,55,108);fill-rule:nonzero;"/>
                    <path d="M148.11,133.04C147.58,132.67 146.83,132.8 146.46,133.33C146.08,133.87 146.22,134.61 146.75,134.98C147.29,135.36 148.02,135.23 148.4,134.69C148.77,134.17 148.65,133.42 148.11,133.04Z" style="fill:rgb(0,55,108);fill-rule:nonzero;"/>
                    <path d="M50.88,118.65L51.39,119.78L45.5,122.41L45,121.27L44.44,121.52L45.96,124.95L46.52,124.7L46.03,123.57L48.62,122.42L50.46,126.56L47.87,127.72L47.36,126.58L46.8,126.83L48.33,130.26L48.89,130.01L48.38,128.87L54.27,126.25L54.78,127.39L55.34,127.14L53.81,123.71L53.25,123.96L53.75,125.1L51.07,126.29L49.23,122.15L51.91,120.95L52.41,122.08L52.97,121.83L51.45,118.4L50.88,118.65Z" style="fill:rgb(0,55,108);fill-rule:nonzero;"/>
                    <path d="M41.32,106.31L41.84,109.61L42.5,109.51L42.31,108.28L46.41,107.63C47.74,107.42 48.83,108.16 49.03,109.38C49.22,110.58 48.43,111.53 47.08,111.74L42.96,112.39L42.76,111.14L42.1,111.24L42.69,114.96L43.35,114.86L43.15,113.61L47.61,112.9C49.15,112.66 50.08,111.2 49.8,109.44C49.5,107.57 48.09,106.48 46.31,106.76L42.16,107.42L41.97,106.19L41.31,106.29L41.32,106.31Z" style="fill:rgb(0,55,108);fill-rule:nonzero;"/>
                    <path d="M49.37,90.17L49.22,91.4L42.87,90.62L43.03,89.38L42.37,89.3L42.05,91.88L47.3,95.21L41.41,97.13L41.1,99.61L41.76,99.69L41.91,98.45L48.26,99.23L48.11,100.47L48.72,100.54L49.12,97.23L48.52,97.15L48.36,98.39L43.19,97.76L49.43,95.73L43.56,91.98L49.07,92.65L48.92,93.89L49.53,93.97L49.98,90.24L49.37,90.17Z" style="fill:rgb(0,55,108);fill-rule:nonzero;"/>
                    <path d="M52.9,81.41C53.47,79.94 53.11,78.82 51.92,78.36C50.76,77.91 49.73,78.5 49.12,79.97C49.55,78.84 49.2,77.76 48.27,77.4C47.19,76.98 46.17,77.55 45.66,78.87L44.21,82.65L44.78,82.87L45.23,81.71L51.25,84.02L50.8,85.18L51.37,85.4L52.91,81.4L52.9,81.41ZM48.85,81.76L49.28,80.64C49.67,79.62 50.37,79.29 51.33,79.66C52.21,80 52.46,80.7 52.07,81.72L51.65,82.82L48.86,81.75L48.85,81.76ZM45.72,80.56L46.14,79.46C46.43,78.7 47.02,78.46 47.8,78.76C48.59,79.06 48.91,79.76 48.61,80.53L48.23,81.52L45.72,80.55L45.72,80.56Z" style="fill:rgb(0,55,108);fill-rule:nonzero;"/>
                    <path d="M58.26,71.99C59.46,70.28 58.96,67.69 57.17,66.45C55.42,65.22 52.83,65.64 51.63,67.35C50.41,69.09 50.89,71.65 52.65,72.89C54.45,74.15 57.03,73.73 58.25,71.99L58.26,71.99ZM52.2,67.76C53,66.62 54.86,66.54 56.38,67.61C57.92,68.69 58.49,70.45 57.68,71.6C56.88,72.74 55.02,72.8 53.48,71.72C51.97,70.66 51.4,68.9 52.2,67.76Z" style="fill:rgb(0,55,108);fill-rule:nonzero;"/>
                    <path d="M66.53,59.84L66.1,60.26L66.8,60.99L64.79,62.92L60.39,58.36L61.28,57.5L60.82,57.02L58.12,59.63L58.58,60.1L59.48,59.24L63.92,63.84L63.03,64.7L63.45,65.14L67.69,61.05L66.53,59.84Z" style="fill:rgb(0,55,108);fill-rule:nonzero;"/>
                    <path d="M70.47,58.83L73.81,56.74C75.75,55.53 76.35,53.22 75.19,51.36C74.05,49.54 71.66,49.04 69.75,50.24L66.41,52.33L66.74,52.85L67.8,52.19L71.22,57.65L70.16,58.31L70.49,58.83L70.47,58.83ZM72.24,56.94L68.88,51.56L69.99,50.87C71.29,50.06 73.03,50.62 73.97,52.14C74.92,53.66 74.64,55.44 73.33,56.26L72.23,56.95L72.24,56.94Z" style="fill:rgb(0,55,108);fill-rule:nonzero;"/>
                    <path d="M85.71,50.63L84.38,51.08L82.3,45.04L84.59,44.25L84.89,45.13L85.47,44.93L84.85,43.11L84.26,43.31L84.37,43.62L78.59,45.61L78.48,45.3L77.92,45.49L78.55,47.31L79.11,47.12L78.81,46.24L81.1,45.45L83.18,51.5L81.85,51.95L82.05,52.53L85.91,51.21L85.71,50.63Z" style="fill:rgb(0,55,108);fill-rule:nonzero;"/>
                    <path d="M93.39,44.94L90.26,45.51L90.49,46.75L93.61,46.19L93.39,44.94Z" style="fill:rgb(0,55,108);fill-rule:nonzero;"/>
                    <path d="M106.6,41.25L103.26,41.19L103.26,41.86L104.49,41.88L104.42,46.03C104.4,47.38 103.48,48.32 102.24,48.3C101.03,48.28 100.23,47.33 100.25,45.97L100.32,41.8L101.58,41.82L101.58,41.16L97.82,41.09L97.82,41.75L99.07,41.77L98.99,46.29C98.96,47.85 100.24,49.02 102.01,49.05C103.9,49.08 105.22,47.88 105.25,46.08L105.32,41.88L106.56,41.9L106.56,41.24L106.57,41.24L106.6,41.25Z" style="fill:rgb(0,55,108);fill-rule:nonzero;"/>
                    <path d="M120.17,44.66L121.37,44.98L121.55,44.34L118.32,43.48L118.15,44.12L119.37,44.44L118.14,49.03L115.04,42.6L112.97,42.04L112.79,42.68L113.92,42.98L114.12,43.49L112.58,49.24L111.38,48.92L111.22,49.52L114.45,50.38L114.6,49.79L113.38,49.46L114.65,44.73L117.84,51.43L118.33,51.56L120.17,44.66Z" style="fill:rgb(0,55,108);fill-rule:nonzero;"/>
                    <path d="M127.56,54.95L126.46,54.37L129.46,48.72L130.56,49.3L130.87,48.72L127.56,46.96L127.25,47.54L128.34,48.13L125.34,53.77L124.24,53.19L123.95,53.73L127.27,55.49L127.56,54.95Z" style="fill:rgb(0,55,108);fill-rule:nonzero;"/>
                    <path d="M139.95,55.62L140.5,56.04L140.9,55.51L138.98,54.06L138.58,54.59L139.34,55.16L134.58,58L135.95,52.61L136.79,53.24L137.19,52.71L134.62,50.77L134.22,51.3L134.87,51.79L132.92,59.35L133.23,59.59L139.95,55.62Z" style="fill:rgb(0,55,108);fill-rule:nonzero;"/>
                    <path d="M144.21,67.76L143.8,67.3L143.14,67.89L141.25,65.79L143.41,63.85L144.83,65.43L144.22,65.98L144.63,66.44L146.35,64.9L145.92,64.45L145.33,64.98L143.91,63.4L145.97,61.55L147.79,63.57L147.15,64.15L147.55,64.59L148.93,63.35L148.52,62.89L148.27,63.12L144.78,59.24L144.33,59.65L145.16,60.58L140.37,64.89L139.54,63.96L139.08,64.37L143.06,68.79L144.21,67.76Z" style="fill:rgb(0,55,108);fill-rule:nonzero;"/>
                    <path d="M151.53,83.64C151.38,84.37 151.39,84.99 151.59,85.6C152.02,86.91 153.24,87.6 154.42,87.21C155.45,86.88 155.83,86.33 156.14,84.73C156.22,84.34 156.32,83.89 156.42,83.4C156.56,82.76 156.73,82.51 157.14,82.38C157.79,82.17 158.36,82.53 158.6,83.27C158.74,83.7 158.75,84.01 158.62,84.73L157.83,84.99L158.02,85.57L159.91,84.95L159.72,84.37L159.33,84.5C159.43,83.96 159.4,83.47 159.23,82.94C158.82,81.68 157.6,80.97 156.46,81.34C155.53,81.64 155.13,82.3 154.89,83.91C154.65,85.44 154.38,86 153.78,86.19C153.16,86.39 152.54,85.97 152.28,85.18C152.1,84.64 152.1,84.16 152.28,83.4L153.1,83.13L152.91,82.55L150.94,83.19L151.13,83.77L151.54,83.64L151.53,83.64Z" style="fill:rgb(0,55,108);fill-rule:nonzero;"/>
                    <path d="M154.62,95.98L154.45,94.74L160.78,93.85L160.95,95.09L161.61,94.99L161.09,91.28L160.43,91.37L160.61,92.6L154.27,93.49L154.1,92.26L153.49,92.35L154.01,96.06L154.62,95.98Z" style="fill:rgb(0,55,108);fill-rule:nonzero;"/>
                    <path d="M154.76,105.66L154.81,104.25L161.2,104.47L161.12,106.89L160.19,106.86L160.17,107.48L162.09,107.54L162.11,106.93L161.78,106.92L161.99,100.81L162.32,100.82L162.35,100.23L160.42,100.16L160.4,100.76L161.33,100.79L161.25,103.21L154.85,102.99L154.9,101.58L154.29,101.56L154.15,105.64L154.76,105.66Z" style="fill:rgb(0,55,108);fill-rule:nonzero;"/>
                    <path d="M152.35,118.08L152.52,117.39L160.35,116.19L160.45,115.77L154.13,110.91L154.28,110.3L153.68,110.15L153.12,112.41L153.72,112.56L153.94,111.66L155.51,112.85L154.78,115.78L152.84,116.07L153.02,115.36L152.42,115.21L151.75,117.92L152.34,118.08L152.35,118.08ZM161.61,118.76C162.09,118.88 162.58,118.58 162.69,118.12C162.81,117.64 162.52,117.15 162.04,117.03C161.58,116.92 161.09,117.21 160.97,117.69C160.85,118.15 161.15,118.64 161.61,118.75L161.61,118.76ZM162.32,115.91C162.8,116.03 163.29,115.73 163.4,115.27C163.52,114.8 163.22,114.3 162.75,114.19C162.29,114.07 161.8,114.37 161.68,114.85C161.57,115.31 161.86,115.8 162.32,115.91ZM156.08,113.28L158.61,115.21L155.48,115.68L156.08,113.28Z" style="fill:rgb(0,55,108);fill-rule:nonzero;"/>
                    <path d="M148.89,126.12L149.49,124.84L155.28,127.55L154.26,129.74L153.41,129.35L153.16,129.91L154.9,130.72L155.16,130.17L154.86,130.03L157.44,124.48L157.74,124.63L158,124.08L156.25,123.27L156,123.81L156.84,124.2L155.82,126.4L150.02,123.7L150.62,122.42L150.06,122.16L148.33,125.86L148.89,126.12Z" style="fill:rgb(0,55,108);fill-rule:nonzero;"/>
                </g>
                <path d="M150.13,79.12L149.9,78.72C149.72,78.4 149.74,78.03 149.96,77.58L151.17,75.13C151.88,75.99 152.92,76.18 153.89,75.64C155.06,74.98 155.26,73.88 154.47,72.48L152.55,69.06L151.97,69.38L152.58,70.47L147.01,73.6L146.4,72.51L145.86,72.81L147.7,76.08L148.23,75.78L147.62,74.69L150.02,73.34L150.42,74.05L148.96,76.91C148.61,77.58 148.62,77.73 148.98,78.37L149.58,79.43L150.12,79.13L150.13,79.12ZM153.21,71.56L153.78,72.57C154.2,73.32 153.98,73.98 153.17,74.44C152.37,74.89 151.59,74.74 151.2,74.04L150.62,73.01L153.21,71.55L153.21,71.56Z" style="fill:rgb(0,55,108);fill-rule:nonzero;"/>
            </g>
            <g>
                <path d="M114.89,76.84C114.83,76.81 113.35,76.18 113.14,76.13C113.04,76.11 112.29,75.59 111.75,75.21C111.11,74.76 110.82,74.57 110.75,74.55C110.63,74.52 109.97,74.2 109.64,74.04L107.99,72.98L106.34,71.77C106.34,71.77 106.02,71.52 105.66,71.43C105.65,71.43 104.66,71.07 103.4,71.19C102.64,71.29 100.65,71.54 100.57,71.54C100.48,71.54 98.55,71.93 98.42,72.01C98.4,72.02 96.84,73 96.34,73.3L96.32,73.3L96.12,74.44L96.25,74.31C96.25,74.31 97.61,72.97 98.88,72.58C98.91,72.58 101.63,71.93 103.52,72.03C103.54,72.03 105.46,72.07 106.86,73.11L108.11,74.15L109.93,75.1C109.93,75.1 111.3,76.2 114.31,77.42C114.33,77.42 115.94,78.04 116.85,78.94L116.93,79.02L116.95,78.91C117.11,78.03 114.99,76.89 114.9,76.84L114.89,76.84Z" style="fill:rgb(0,55,108);fill-rule:nonzero;"/>
                <path d="M122.45,85.55L122.15,83.78L121.95,82.72L121.6,81.51C121.18,79.98 120.55,78.95 119.74,77.89C119.73,77.86 119.44,77.21 118.3,76.23C118.21,76.15 118.1,76.05 117.98,75.94C117.58,75.56 116.97,74.99 116.17,74.53C115.98,74.41 114.25,73.37 114.14,73.33C114.1,73.32 113.99,73.28 113.85,73.23C113.5,73.1 112.97,72.91 112.82,72.88C112.43,72.78 111.99,72.72 111.72,72.69L111.92,72.63L111.38,72.66L111.38,72.68C111.38,72.68 111.32,72.73 111.32,72.78C111.32,72.87 111.43,73 112.19,73.2C112.37,73.25 113.99,73.85 113.99,73.85C114.01,73.86 115.94,75.03 116.26,75.24C116.28,75.25 117.82,76.41 118.83,77.94C118.84,77.96 120.15,79.63 120.88,82.63L121.81,85.23L122.81,87.02L122.46,85.56L122.45,85.55Z" style="fill:rgb(0,55,108);fill-rule:nonzero;"/>
                <path d="M125.32,93.2C125.23,92.49 125.11,91.61 125.02,91.09C124.9,90.33 124.45,88.94 124.06,88.29C123.69,87.66 122.83,87.05 122.8,87.02L122.63,86.9L123.3,88.47C123.3,88.47 124.13,90.17 124.62,94.21L124.29,97.77L123.91,99.07C123.78,100.3 123.78,100.31 123.85,100.32L123.88,100.32L123.9,100.31C123.93,100.28 124.74,99.53 124.94,98.64C124.95,98.58 125.23,97.18 125.27,96.85C125.27,96.83 125.53,94.74 125.44,94.09C125.41,93.89 125.37,93.57 125.32,93.21L125.32,93.2Z" style="fill:rgb(0,55,108);fill-rule:nonzero;"/>
                <path d="M131.31,112.56C130.63,112.01 130.81,111.41 130.82,111.37L131.04,108.81C131.06,107.54 130.51,106.47 130.51,106.47C130.33,105.86 129.38,105.42 129.33,105.4C128.77,105.28 128,105.27 127.71,105.27L127.59,105.27C126.09,105.36 125.68,105.58 125.48,105.69C125.39,105.74 125.37,105.74 125.32,105.73C125.32,105.71 125.35,105.61 125.38,105.53C125.47,105.31 125.61,104.94 125.53,104.47C125.21,103.62 125.23,102.74 125.23,102.61L126.35,101.03C127.91,98.26 127.67,94.86 127.66,94.83C127.26,89 126.14,85.82 126.13,85.79C124.53,80.61 122.07,75.93 122.04,75.88C118.88,70.79 112.03,69.8 111.97,69.79C108.63,69.11 102.83,69.35 102.77,69.35C99.79,69.58 98.06,70.33 98.05,70.34C98.02,70.35 95.37,71.39 94.26,73.15C94.24,73.19 94.08,73.58 94,73.88C93.79,74.05 92.9,74.62 91.64,73.79C90.52,73.29 90.33,71.1 90.33,71.06C90.33,71.06 90.05,70.26 89.22,70.24C86.49,69.83 84.96,70.84 84.94,70.86C84.88,70.91 83.5,71.98 83.04,73.08C82.78,73.11 81.3,73.36 79.73,75.74L78.38,77.36L76.57,78.94L76.57,78.96C76.53,79.02 75.81,80.41 76.26,83.14C76.32,83.38 76.84,83.77 77.86,84.34C77.88,84.35 77.89,84.36 77.91,84.37C78.08,84.64 78.06,87.49 77.66,88.17C77.63,88.22 77.13,89.47 77.04,89.71L76.4,90.76C76.34,90.81 76.02,91.16 76.04,92.15L76.04,92.97C76.04,92.97 75.94,94.15 75.52,94.7L74.22,96.45L73.05,98.17C73.05,98.17 72.28,99.59 72.06,99.89C72.01,99.95 71.95,100.03 71.86,100.13C71.54,100.5 71.05,101.07 70.97,101.73C70.97,101.77 70.94,102.66 71.54,103.26C71.88,103.6 72.35,103.77 72.93,103.77L73.01,103.77L73.62,103.75C73.62,103.75 73.62,103.78 73.64,103.79C73.64,103.89 73.66,104.13 73.67,104.29L73.73,104.81L73.67,105.87C73.67,105.87 73.44,106.75 73.69,107.16C73.69,107.16 73.95,107.42 73.93,107.66L73.79,108.17L73.68,108.51C73.66,108.61 73.49,109.46 73.87,109.63L74.35,109.88C74.35,109.88 74.95,110.42 74.68,110.95L74.22,111.76C74.22,111.76 73.77,112.28 73.68,112.92C73.68,112.94 73.37,114.43 74.22,115.71C74.81,116.6 75.81,117.18 77.18,117.43L79.84,117.76L82.79,118.3C82.79,118.3 83.61,118.52 83.59,119.57L83.56,120.01C83.56,120.01 83.61,120.79 83.97,121.45L84.62,122.86L85.32,124.14L86.02,125.84C86.02,125.84 86.62,127.37 86.6,129.2L86.47,132.68L86.47,132.74L87.43,132.76L87.49,132.76L87.54,127.92C87.54,127.92 87.31,126.03 86.54,124.62L85.95,123.39L85.07,121.87C85.07,121.87 84.44,120.67 84.32,119.01L84.35,118.06C84.62,117.97 86.23,117.43 87.78,116.71C87.96,116.63 90.47,114.98 91.45,114.25C93.44,112.57 93.98,112.12 94.1,111.98C94.3,111.82 95.73,110.61 96.23,109.82L96.66,109.82C96.66,109.82 96.69,109.8 96.7,109.8C96.8,109.8 96.88,109.83 96.96,109.9C97.35,110.24 97.41,111.29 97.41,111.31L99.34,119.81L96.9,123.45L94.29,129.55L92.21,136.97L92.19,137.04L93.57,137.04L93.57,136.98C93.65,130.96 98.27,122.69 98.32,122.62L102.68,116.58L107.6,111.22L111.89,106.74C112.03,106.64 115.4,104.37 115.79,104.04C115.89,103.98 115.99,103.97 116.08,104.01C116.33,104.12 116.45,104.58 116.46,104.6C116.87,105.39 117.03,106.17 117.04,106.18C117.45,107.47 117.32,107.9 117.21,108.03C117.14,108.11 117.05,108.11 117.06,108.11C117.07,108.11 117.06,108.11 117.06,108.11C115.58,108.31 114.9,109.41 114.9,109.42C114.06,110.75 114.28,112.27 114.39,112.77C114.37,112.8 114.36,112.83 114.35,112.86C114.27,112.86 114.18,112.85 114.1,112.85C112.31,112.85 111.76,114.24 111.76,114.25C110.52,116.6 111.49,118.93 111.5,118.94C111.5,118.96 111.81,120.48 111.74,121.58C111.74,121.76 111.67,123.3 112.34,123.67C112.84,124.04 113.27,124.15 113.39,124.18C113.46,124.31 113.8,124.89 114.3,124.95C114.35,124.95 114.4,124.96 114.45,124.96C115.02,124.96 115.57,124.54 116.08,123.71C116.1,123.67 116.12,123.64 116.13,123.64C116.19,123.58 117.34,122.53 117.35,122.53C117.35,122.53 117.99,122.12 118.86,122.32C118.97,122.34 119.93,122.27 120.12,122.26C121.03,122.21 121.51,121.53 121.7,121.18C121.77,121.87 122.11,123.93 123.71,124.47C123.56,124.74 123.57,125.15 123.57,125.22C123.19,126.86 124.39,127.68 124.4,127.69C126.96,129.25 129.58,127.77 129.6,127.76C131.15,126.88 131.25,124.69 131.25,124.67C131.43,122.92 131.23,121.88 131.23,121.87L131.23,121.85C129.84,119.65 131.25,118.1 131.26,118.08C131.75,117.64 132.09,116.76 132.25,115.48C132.44,113.37 131.39,112.61 131.34,112.58L131.31,112.56ZM129.88,121.76C130.48,122.74 130.18,124.87 130.18,124.89C129.84,126.65 128.33,127.21 127.69,127.36C126.43,127.68 125.12,127.36 124.51,126.61C124.17,126.18 124.07,125.64 124.2,125.03C124.22,124.99 124.24,124.96 124.25,124.9C124.42,124.39 124.74,123.42 126.91,123.26C127.28,123.26 128.03,123.89 128.04,124.3C128.04,124.49 127.87,124.59 127.53,124.61L127.45,124.61C127.3,124.61 127.17,124.59 127.16,124.59C126.92,124.59 126.77,124.66 126.7,124.77C126.63,124.88 126.68,125.01 126.68,125.01C126.68,125.03 126.88,125.48 127.64,125.48L127.9,125.48C128.08,125.48 128.26,125.46 128.32,125.44C129.08,125.22 129.01,124.09 129,124.05C128.96,123.3 128.21,122.86 128.18,122.84L127.33,122.36L126.79,122.31L125.86,122.43C124.77,122.66 124.25,123.45 124.05,123.87C122.82,122.88 122.7,122.06 122.7,122.04L122.21,120.64C122.3,120.48 122.42,120.25 122.59,119.94L123.03,120.09C123.03,120.09 124.15,120.35 125.27,120.35C125.42,120.35 125.57,120.35 125.71,120.33C125.82,120.33 126.97,120.22 127.01,120.22L127.77,120.26C127.77,120.26 129.02,120.51 129.46,121.03L129.72,121.45C129.79,121.65 129.85,121.78 129.85,121.8L129.88,121.76ZM112.49,119.62L112.49,119.58C112.49,119.58 112.47,119.35 112.67,119.14C112.88,118.9 113.26,118.77 113.78,118.75C113.81,118.75 114.45,118.76 114.68,119.33L114.68,119.35C114.68,119.35 115.08,119.72 115.14,120.19C114.93,120.21 114.18,120.32 113.55,120.76C113.1,121.08 112.8,121.52 112.62,121.82C112.46,121.14 112.42,120.43 112.4,119.92L112.49,119.62ZM113.98,121.25C114.48,120.95 115.09,120.87 115.57,121.07L116.4,121.78C116.38,122.09 116.26,122.63 115.61,123.01L115.59,123.03C115.1,123.67 114.63,124 114.24,124L114.2,124C113.84,123.98 113.66,123.68 113.65,123.68L113.63,123.66C113.43,123.53 113.27,123.34 113.13,123.13C113.11,122.7 113.16,121.76 113.97,121.26L113.98,121.25ZM116.9,121.25L116.26,120.87C116.26,120.87 116.11,120.77 116.06,120.62L115.44,119.22C115.41,119.17 114.63,118.2 114.06,118.15L113.93,118.15C113.61,118.15 113.44,118.17 113.36,118.19L113.3,118.19C113.23,118.19 112.7,118.38 112.45,118.46L112,118.46C111.57,117.41 111.94,116.34 112.15,115.87C112.28,115.73 112.44,115.6 112.66,115.54C112.98,115.45 113.35,115.56 113.73,115.85L114.81,116.97L115.51,117.84C115.62,118.02 116.61,119.56 116.95,119.73C117.29,119.9 117.02,119.76 117.05,119.76C117.09,119.76 117.12,119.74 117.14,119.72C117.29,119.55 116.97,118.83 116.69,118.4C116.6,118.26 116.5,118.09 116.38,117.88C115.99,117.22 115.46,116.32 114.9,115.77C114.83,115.7 114.76,115.63 114.69,115.57C114.11,114.99 113.62,114.54 112.83,114.38C113.42,113.7 114.29,113.53 114.73,113.49C115.17,113.45 115.26,113.76 115.26,113.76L115.67,114.1L116.17,114.71L116.53,115.24L116.95,116.31L117.19,117.13L117.54,117.87L118.3,118.97L118.32,118.99C118.57,119.15 118.82,119.23 119.08,119.23C119.19,119.23 119.29,119.21 119.4,119.19C119.93,119.05 120.33,118.57 120.52,118.18C121.36,116.5 118.78,112.77 118.57,112.48C118.4,110.84 119.56,109.21 119.88,108.78C120.44,108.77 120.93,108.73 121.37,108.68L121.37,108.92L121.22,110.06C121.17,110.24 121.01,110.72 120.85,110.85C120.83,110.88 120.28,111.67 120.15,112.5C120.15,112.57 120.15,113.2 120.29,113.41C120.85,114.12 121.75,115.29 121.81,115.46L121.81,115.48C122.1,117.69 121.89,118.14 121.32,119.32C121.18,119.61 121.02,119.96 120.84,120.37L120.26,120.94C119.72,121.61 118.41,121.62 118.4,121.62L117.14,121.52C117.07,121.45 116.98,121.36 116.89,121.26L116.9,121.25ZM115.06,111.94C115.07,111.19 115.54,110.16 115.58,110.07C116.33,109.2 117.05,109.07 117.05,109.07C117.41,109.05 117.67,108.93 117.86,108.73C118.22,108.75 118.54,108.76 118.87,108.76C118.57,109.16 116.69,111.75 118.05,113.55C119.07,114.9 120.07,116.73 119.92,117.46C119.89,117.59 119.84,117.67 119.74,117.72L119.72,117.72C119.38,118.11 119.09,118.27 118.85,118.21C118.49,118.12 118.36,117.57 118.35,117.55L117.81,116.52L117.47,115.37C117.4,115.07 116.79,114.27 116.76,114.23L116.43,113.84L116.13,113.58L115.7,113.07L115.35,112.8L115.11,112.64C115.11,112.64 115.06,112.62 115.03,112.61L115.03,111.93L115.06,111.94ZM74.7,107.74C74.82,107.6 75.03,107.46 75.28,107.56C75.36,107.62 75.79,107.94 75.95,107.94C75.95,107.94 76.27,107.94 76.81,107.9C76.99,107.9 77.07,107.82 77.11,107.75C77.19,107.61 77.14,107.42 77.07,107.31C77.02,107.23 76.96,107.19 76.9,107.19C76.72,107.19 76.15,107.23 76.15,107.23L76.13,107.23L76.11,107.25C76.11,107.25 76.07,107.27 76.01,107.27C75.93,107.26 75.76,107.18 75.52,106.81C75.47,106.72 75.3,106.59 75.17,106.56C75.1,106.54 74.99,106.53 74.8,106.51L74.62,106.49C74.53,106.49 74.46,106.44 74.42,106.39C74.34,106.28 74.38,106.12 74.38,106.12L74.48,105.58C74.49,105.52 74.79,104.28 74.48,103.63C74.51,103.65 74.55,103.67 74.6,103.69L75.42,103.82L76.47,104.25C76.47,104.25 77.02,104.45 78.06,103.79L78.09,103.77L78.09,103.74C78.02,102.86 77.2,101.67 77.17,101.62L77.12,101.55L76.87,101.91L76.87,101.94C76.87,101.94 77.1,102.49 77.17,102.67C77.34,103.14 77.39,103.36 77.35,103.45C77.32,103.51 77.25,103.53 77.12,103.57L77.08,103.57C76.76,103.68 76.16,103.78 75.8,103.27L75.78,103.25C75.78,103.25 75.13,102.87 74.23,102.74C74.22,102.74 73.15,102.85 72.86,102.86C72.34,102.88 72,102.8 71.82,102.62C71.63,102.42 71.65,102.14 71.67,101.86C71.67,101.75 71.68,101.65 71.67,101.56C71.76,101.39 72.62,99.9 73.27,99.23L73.68,98.7L74.85,96.7L75.8,95.49C75.8,95.49 76.89,94.37 76.86,93.48L76.93,92.34L76.93,92.32C76.93,92.32 76.82,91.71 77.18,91.04L77.69,90.06L78.22,88.63L78.57,87.22L78.74,85.28L78.74,85.01C78.94,84.68 79.42,83.88 79.51,83.3C79.62,82.6 80.32,81.96 80.93,81.66C81.27,81.5 81.58,81.37 81.81,81.28C82.01,81.2 82.15,81.14 82.2,81.1L82.21,81.1C82.21,81.1 82.39,80.86 82.32,80.66C82.27,80.53 82.14,80.45 81.93,80.41L81.91,80.41C81.75,80.41 81.06,80.76 80.8,80.9C80.31,81.16 79.83,81.48 79.48,81.78C79.28,81.95 79.1,82.24 78.92,82.52C78.8,82.72 78.68,82.9 78.56,83.05L78.53,83.08C78.35,83.29 78.25,83.4 78.01,83.49C77.35,83.2 76.9,82.82 76.87,82.51C76.87,82.5 76.87,81.41 76.84,81.05C76.82,80.68 76.86,79.87 77.3,79.17C77.45,79.28 77.65,79.36 77.95,79.38L78.16,79.38C79.1,79.38 80.39,78.97 81.11,78.22C81.66,77.65 82.53,77.57 83.07,77.58C83.01,77.65 82.95,77.73 82.92,77.78C82.77,78.02 82.37,79.27 82.54,79.55C82.58,79.62 82.63,79.73 82.68,79.86C82.83,80.22 83.02,80.67 83.31,80.67C83.35,80.67 83.39,80.65 83.42,80.62C83.5,80.52 83.46,80.29 83.39,79.95C83.3,79.48 83.18,78.82 83.42,78.41C84.14,77.19 85.55,76.09 86.57,75.62C87.88,75.03 88.85,74.89 89.44,75.2C89.93,75.46 90.46,76.05 90.88,76.53C91.08,76.76 91.27,76.97 91.43,77.12C91.72,77.39 92.23,77.5 92.63,77.55C92.53,77.82 92.42,78.14 92.3,78.52C91.96,78.49 91.41,78.48 90.84,78.57C90.32,78.07 88.64,76.59 87.55,77.08C86.38,77.6 85.49,78.32 85.18,78.63C84.98,78.83 84.64,79.36 84.69,79.58C84.7,79.63 84.73,79.67 84.78,79.69L84.83,79.69C85.09,79.69 85.66,79.16 85.83,78.99C85.84,78.98 87.18,77.85 88,77.85C88.67,77.85 89.59,78.5 89.94,78.8C89.82,78.85 89.7,78.9 89.59,78.97C88.78,79.48 88.43,79.87 88.18,80.15C88.11,80.23 88.05,80.3 87.99,80.36L87.94,80.41C87.34,81.03 86.9,81.35 86.63,81.35C86.33,81.35 85.76,81.07 85.3,80.85C85.07,80.74 84.86,80.64 84.74,80.6C84.44,80.5 84.08,80.56 83.66,80.77C83.44,80.88 83.15,81.09 83.05,81.34C83.03,81.38 83.04,81.41 83.06,81.44C83.14,81.54 83.42,81.54 84.04,81.48C84.19,81.47 84.32,81.46 84.39,81.46C84.57,81.46 85.16,81.76 85.64,82C85.89,82.13 86.13,82.25 86.29,82.32C86.36,82.35 86.44,82.37 86.52,82.37C87.15,82.37 88.09,81.61 88.2,81.51C88.32,81.41 88.45,81.24 88.62,81.01C89,80.51 89.52,79.83 90.35,79.39C91.03,79.04 91.64,79.09 92.03,79.2C91.92,79.48 91.79,79.81 91.68,80.08C91.65,80.2 91.62,80.31 91.59,80.43C91.43,80.53 91.23,80.67 90.98,80.92C89.9,81.96 88.54,82.66 87.82,82.99C87.79,83.01 87.77,83.01 87.76,83.02C87.16,83.4 85.43,83.04 84.8,82.83C84.74,82.81 84.7,82.83 84.68,82.85C84.66,82.87 84.64,82.9 84.66,82.97C84.73,83.2 85.24,83.72 86.1,83.87C86.1,83.87 86.41,83.92 86.86,83.92C87.57,83.92 88.66,83.79 89.52,83.12L91.2,81.85C91.18,81.91 91.16,81.98 91.16,82C91.06,82.18 90.36,83.85 90.28,84.05C89.99,85.57 89.51,86.34 89.51,86.34L85.46,92.53C84.99,93.39 84.95,94.25 85.06,94.59C85.19,94.99 85.31,95.23 85.75,95.23C85.95,95.23 86.22,95.25 86.47,95.27C86.68,95.29 86.89,95.31 87.02,95.31L87.08,95.31C87.7,95.31 87.75,95.8 87.75,95.81C87.75,95.88 87.77,97.65 87.79,97.8C87.81,97.98 87.84,98.88 87.84,98.89C87.84,98.89 87.8,99.51 88.57,99.82C88.63,99.93 88.59,100.1 88.43,100.35C88.37,100.47 88.17,101.54 88.21,101.66C88.21,101.68 88.22,101.7 88.23,101.72C88.25,101.82 88.29,101.96 88.53,102.07C89.31,102.41 89.32,102.95 89.32,102.97L89.32,102.99C89.43,103.23 88.95,104.2 88.63,104.76C88.12,105.56 88.35,107.87 88.37,107.98C88.65,109.1 90.78,109.53 90.88,109.55C92.97,109.64 94.47,109.86 94.5,109.86L95.09,109.84C95.03,109.9 94.98,109.94 94.92,110L91.12,113.2C91.12,113.2 86.76,117.25 83.25,117.25L83.05,117.25C82.98,117.25 82.47,117.21 81.97,117.17C81.4,117.12 81.04,117.1 81.01,117.1C81.01,117.1 80.93,117.08 80.84,117.07C80.43,116.99 79.34,116.76 78.38,116.73C76.05,116.73 74.61,115.81 74.44,114.2C74.25,113.06 74.47,112.5 74.49,112.43C74.59,112.32 75.59,111.2 75.58,110.71C75.58,110.67 75.35,109.67 75.01,109.38L74.99,109.36L74.96,109.36C74.68,109.44 74.49,109.36 74.38,109.18C74.17,108.84 74.28,108.13 74.6,107.76L74.7,107.74ZM126.81,96.45C126.61,99.87 125.15,101.16 124.71,101.47C124.69,101.48 124.68,101.5 124.67,101.51L124.67,101.53C124.59,101.6 124.5,101.67 124.41,101.75C124.1,102.04 123.76,102.36 123.19,102.63C123.09,102.68 122.99,102.73 122.89,102.78C122.8,102.82 122.71,102.87 122.6,102.92C122.32,102.8 121.95,102.61 121.66,102.32C121.89,101.89 122.3,100.97 122.03,100.38C121.79,99.86 121.58,99.55 121.42,99.33C121.35,99.23 121.28,99.13 121.23,99.05C121.18,98.96 121.14,98.63 121.11,98.28C121.04,97.61 120.95,96.78 120.67,96.39C120.1,95.57 119,94.75 118.46,94.49C118.18,94.36 117.72,94.39 117.35,94.42C117.11,94.44 116.84,94.46 116.78,94.4C116.78,93.53 115.9,91.07 115.07,90.26C114.83,90.02 113.81,89.85 113.39,89.98C113,90.1 111.94,90.18 111.7,89.82C111.67,89.78 111.65,89.74 111.62,89.7C111.58,89.64 111.55,89.58 111.51,89.51C111.48,89.45 111.44,89.38 111.4,89.32C111.4,89.3 111.37,89.27 111.37,89.26C111.37,89.16 110.38,86.23 110.07,85.33C109.63,84.48 109.03,84.31 108.45,84.14C107.85,83.97 106.98,83.62 106.55,83.31C106.38,83.19 106.3,82.73 106.22,82.25C106.11,81.57 105.97,80.79 105.54,80.37C104.79,79.64 101.78,79.37 101.66,79.36C101.59,79.36 101.38,79.33 101.18,79.34C101.2,79.23 101.21,79.15 101.21,79.15L101.32,78.21C101.59,78.26 101.97,78.3 102.38,78.23C103.02,78.12 104.19,77.92 105.04,77.98C105.66,78.03 106.05,78.46 106.56,79C106.7,79.15 106.84,79.3 107,79.46C107.32,79.78 107.61,80.34 107.92,80.93C108.34,81.74 108.82,82.66 109.5,83.27C110.44,84.12 111.79,84.69 112.6,85.03C112.8,85.12 112.97,85.18 113.07,85.24C113.35,85.38 113.39,85.58 113.49,86.01C113.55,86.28 113.63,86.64 113.79,87.12C114.26,88.47 114.99,89.1 115.64,89.53C116.02,89.78 116.9,90.09 117.76,90.39C118.59,90.68 119.46,90.98 119.73,91.2C120.02,91.43 120.1,91.88 120.19,92.36C120.26,92.76 120.33,93.17 120.53,93.49C120.81,93.93 121.51,94.49 122.14,94.99C122.5,95.27 122.83,95.54 123.04,95.75C123.34,96.05 123.49,96.52 123.61,96.86C123.69,97.12 123.74,97.26 123.83,97.29L123.85,97.29C123.87,97.29 123.9,97.29 123.93,97.25C124.11,97.07 124.01,96.46 123.8,95.62C123.73,95.32 123.25,94.88 122.7,94.37C122.61,94.29 122.52,94.2 122.42,94.11C122.68,93.82 123.03,93.34 123.07,92.72C123.13,91.75 122.76,90.33 122.25,89.61C121.74,88.9 121.13,88.12 120.17,87.8C119.95,87.73 119.78,87.68 119.65,87.64C119.2,87.51 119.12,87.48 118.75,87.09C118.28,86.6 117.78,84.32 117.62,82.59C117.51,81.43 116.99,80.94 116.25,80.57C115.83,80.36 115.01,80.16 114.14,79.94C113.43,79.76 112.69,79.58 112.13,79.38C111.3,79.09 109.71,77.99 108.55,77.2C107.96,76.79 107.44,76.44 107.15,76.27C106.24,75.75 102.49,75.08 101.68,75.39C101.26,75.55 101.05,75.82 100.95,76.05C100.81,75.8 100.68,75.72 100.64,75.7C100.39,75.5 99.61,75.24 99.57,75.23C99.51,75.21 99.44,75.2 99.38,75.18C99.6,75.01 99.92,74.78 100.24,74.59C100.83,74.25 102.03,74.1 102.95,74.1C103.95,74.1 104.37,73.94 104.38,73.93L104.5,73.88L104.39,73.82C104.39,73.82 104.04,73.65 103.37,73.56C102.94,73.51 102.03,73.59 101.31,73.66C100.9,73.7 100.55,73.73 100.37,73.73C99.89,73.73 98.5,74.8 98.29,74.96C97.87,74.91 97.49,74.89 97.29,74.89L97.22,74.89C96.86,74.86 95.99,75.01 95.95,75.02C95.59,75.08 95.19,75.24 95.11,75.28C94.93,74.96 94.82,74.58 94.86,74.14C94.9,73.69 95.05,73.31 95.26,73.15L95.27,73.15C95.64,72.66 96.65,71.96 96.66,71.95C96.95,71.73 99.81,70.43 102.92,70.33C105.68,70.24 108.35,70.34 110.84,70.64C112.76,70.87 117.92,73.12 117.97,73.14C119.52,73.93 120.76,75.72 120.78,75.75C121.76,76.79 123.85,81.65 123.87,81.69C125.16,86.09 125.41,86.82 125.49,86.94C125.58,87.08 126.62,90.57 126.81,96.42L126.81,96.45ZM124.82,105.11C124.82,105.11 124.82,105.17 124.81,105.21L124.57,105.83C124.53,105.91 124.5,105.99 124.46,106.07L124.46,106.13L124.33,106.47C124.17,107.13 120.98,107.83 119.78,108.05L119.09,108.02L118.5,108.02L118.17,108C118.17,107.8 118.14,107.65 118.13,107.63L118,107.05C118.05,107 118.16,106.98 118.2,106.98C120.03,106.95 121.61,106.31 121.62,106.3C121.67,106.28 122.65,105.87 123.03,105.72C123.36,105.59 123.72,105.18 123.74,104.96C123.75,104.88 123.72,104.84 123.69,104.82C123.62,104.77 123.5,104.78 123.33,104.86C122.55,105.21 119.88,106.11 119.86,106.11L119.25,106.2L118.32,106.2C118.04,106.2 117.84,105.67 117.72,105.25C117.78,105.17 118.02,104.91 118.89,104.91C119.01,104.91 119.14,104.91 119.29,104.93L119.31,104.93C119.31,104.93 122.1,104.4 123.74,103.23C123.88,103.19 124.18,103.14 124.41,103.2C124.43,103.43 124.47,103.59 124.47,103.6C124.93,104.59 124.83,105.07 124.83,105.08L124.83,105.12L124.82,105.11ZM129.68,118.71L129.68,118.73C129.57,119.18 129.53,119.59 129.52,119.95C129.2,119.64 128.76,119.38 128.16,119.35C128.1,119.35 127.55,119.3 127.26,119.27L126.41,119.3C126.33,118.8 126,117.17 125.17,116.35C124.54,115.72 124.12,115.41 123.75,115.14C123.55,114.99 123.37,114.86 123.17,114.69C122.6,114.19 121.6,113.41 121.6,113.41C121.12,112.81 121.15,112.41 121.74,111.33C122,111.08 122.15,109.14 122.19,108.57C122.58,108.5 122.92,108.42 123.2,108.34C123.2,108.68 123.24,109.42 123.37,110.27C123.45,110.84 123.26,111.5 123.12,111.98C123.03,112.32 122.96,112.56 122.99,112.69C123.09,113.02 124.28,114.11 124.77,114.35C124.87,114.4 125,114.46 125.16,114.54C125.8,114.85 126.87,115.38 127.3,115.68C127.61,115.89 128.11,116.43 128.56,116.9C128.89,117.25 129.17,117.55 129.33,117.67C129.52,117.82 129.73,118.13 129.89,118.39C129.8,118.54 129.72,118.67 129.68,118.73L129.68,118.71ZM122.68,115.94L122.7,115.73L122.81,115.77L124,116.69L125.01,117.72C125.01,117.72 125.5,118.21 125.52,118.68L125.54,119.35L125.3,119.35L123.94,119.28L123.92,119.28L123.9,119.3C123.9,119.3 123.79,119.39 123.57,119.33L123.53,119.33C123.4,119.33 122.83,119.27 122.59,118.66L122.69,117.57L122.78,117.04L122.69,115.95L122.68,115.94ZM122.18,92.76C122.11,93.08 121.96,93.37 121.85,93.56C121.62,93.31 121.43,93.07 121.35,92.87C121.27,92.67 121.22,92.48 121.17,92.27C121,91.63 120.82,90.97 119.96,90.32C119.37,89.87 118.48,89.62 117.62,89.37C116.85,89.15 116.05,88.92 115.5,88.55C115.13,88.31 114.88,87.42 114.64,86.55C114.48,85.98 114.31,85.39 114.11,84.97C113.69,84.11 112.78,83.91 112.05,83.75C111.87,83.71 111.7,83.67 111.55,83.63C110.81,83.41 109.26,82.21 108.26,79.9C107.28,77.64 106.18,77.4 105.59,77.27L105.54,77.27C105.13,77.17 103.71,77.29 102.76,77.37C102.35,77.4 102.03,77.43 101.92,77.43C101.79,77.43 101.62,77.33 101.47,77.22C101.6,76.73 101.89,76.05 102.48,76.05C103.48,76.05 105.15,76.05 106.94,77.1C107.38,77.36 107.88,77.67 108.42,78.01C110.08,79.05 112.15,80.34 113.63,80.73L113.77,80.77C115.59,81.24 116.34,81.43 116.58,82.31C116.66,82.6 116.71,83.03 116.78,83.53C116.91,84.59 117.08,85.91 117.6,86.69C117.96,87.24 118.65,87.69 119.38,88.18C120.15,88.69 120.95,89.23 121.33,89.87C122.09,91.14 122.31,92.23 122.19,92.76L122.18,92.76ZM117.13,103.51C117.03,103.26 116.86,102.86 116.64,102.54C116.46,102.21 115.98,101.75 115.11,101.09C115.04,101.04 114.62,100.88 114.11,100.71C114.13,100.63 114.12,100.55 114.06,100.46L114,100.38C113.893,100.233 113.843,100.01 113.85,99.71L113.85,99.48C113.86,98.97 113.85,98.86 113.85,98.74L113.85,98.5C113.85,98.35 113.8,98.19 113.74,98.01C113.9,97.97 114.09,97.93 114.29,97.88C114.83,97.76 115.5,97.26 115.97,96.61C116.12,96.4 116.32,95.79 116.48,95.26C116.83,95.16 117.27,95.04 117.59,95.14C118.13,95.3 119.26,95.92 119.5,96.3C119.64,96.53 119.76,96.99 119.87,97.43C119.9,97.56 119.94,97.69 119.97,97.81L117.95,97.97L116.69,98.26L115.26,98.86L115.62,99.27L115.64,99.29L115.67,99.29C115.81,99.27 117.02,99.13 117.13,99.09C119.12,98.53 120.38,98.92 120.39,98.93L120.41,98.93C120.41,98.93 120.49,98.98 120.53,99C120.58,99.08 120.62,99.15 120.67,99.23C120.92,99.63 121.18,100.04 121.21,100.19C121.24,100.42 121.02,101.11 120.64,101.7C120.41,101.81 119.98,101.99 119.57,102L118.75,101.92L118.2,101.8C118.1,101.75 117.85,101.65 117.79,101.65C117.74,101.65 117.49,101.52 117.28,101.41C116.79,101.02 116.73,101.01 116.71,101.01C116.66,101.01 116.31,100.89 115.99,100.77L115.3,100.72L115.71,101.21L116.15,101.45L116.51,101.54L117.13,102.07L117.7,102.45L118.05,102.61L118.53,102.77L119.41,102.86L120.47,102.81C120.85,102.9 121.26,103.05 121.27,103.14L121.38,103.44C121.32,103.46 121.28,103.48 121.21,103.5C121.2,103.5 120.11,104.17 118.14,104.17L117.72,104.17L117.13,103.53L117.13,103.51ZM112.18,100.05C111.59,99.71 111.22,99.39 111.03,99.21C110.99,99.18 110.96,99.15 110.94,99.13C109.97,98.32 109.45,98.18 109.42,98.17C109.37,98.17 109.31,98.16 109.26,98.16L109.22,98.16C108.95,97.85 108.56,97.34 108.62,97.08C108.71,96.68 108.88,96.42 109.13,96.3C109.3,96.22 110,96.2 110.5,96.2C110.51,96.2 110.52,96.21 110.54,96.22C110.89,96.44 111.76,96.95 111.77,96.95C112.26,97.21 112.59,97.63 112.74,98.19C112.92,98.84 112.63,99.92 112.55,100.16C112.37,100.1 112.23,100.05 112.18,100.04L112.18,100.05ZM110.08,88.6C109.57,88.67 108.86,88.75 108.6,88.54C108.38,88.35 108.14,88.02 107.92,87.69C107.73,87.42 107.56,87.16 107.39,86.99C107.1,86.7 106.7,86.47 106.29,86.28C106.14,86.01 105.7,85.21 105.43,84.97C104.73,84.33 104.25,83.97 103.82,83.65C103.63,83.51 103.45,83.37 103.27,83.23C102.16,82.34 100.93,81.86 100.49,81.7C100.74,81.03 100.9,80.48 101.01,80.05C101.33,80.11 101.68,80.14 102.06,80.16C103.1,80.22 104.29,80.29 105.23,81.03C105.32,81.1 105.4,81.64 105.47,82.11C105.58,82.84 105.69,83.6 105.94,83.76C106.24,83.95 106.64,84.1 107.06,84.27C107.87,84.59 108.8,84.96 109.36,85.66C110.08,86.56 110.1,88.08 110.08,88.61L110.08,88.6ZM115.8,94.32C115.69,94.8 115.48,95.6 115.27,95.97C114.96,96.53 114.59,96.77 114.17,97.01C113.93,97.15 113.61,97.14 113.38,97.11C113.24,96.86 112.98,96.71 112.67,96.57C112.48,96.48 112.28,96.39 112.13,96.26C111.91,96.09 111.57,95.85 111.28,95.66C111.66,95.37 111.98,94.75 112.07,94.33C112.22,93.67 112.24,93.21 112.22,92.59L112.22,92.48C112.2,91.95 112.18,91.54 112.09,91.31C112.44,91.01 113.03,90.56 114,90.75C114.81,90.91 115.51,92.64 115.77,93.54C115.81,93.69 115.8,94.01 115.79,94.32L115.8,94.32ZM102.74,83.69C103.46,84.24 104.25,85.04 104.55,85.34L104.64,85.44C104.75,85.54 104.81,85.68 104.87,85.82C104.3,85.68 103.71,85.57 103.36,85.57C102.93,85.57 102.21,85.78 101.74,86.16C101.68,86.21 101.64,86.25 101.59,86.3C101.22,85.35 100.34,84.39 100.3,84.35C99.71,83.76 99.76,83.43 99.76,83.43C99.88,83.18 99.98,82.95 100.08,82.72C100.72,82.81 101.88,83.04 102.75,83.7L102.74,83.69ZM101.63,88.68C101.74,88.21 101.74,87.64 101.71,87.18C101.97,86.88 102.34,86.52 102.7,86.43C103.4,86.25 104.24,86.4 104.81,86.55C105.39,86.71 106.37,86.97 106.88,87.6C107.02,87.77 107.15,87.97 107.27,88.16C107.52,88.55 107.77,88.95 108.16,89.16C108.42,89.3 109.12,89.45 109.58,89.55C109.71,89.58 109.83,89.6 109.91,89.62C110.34,89.72 110.61,89.9 110.81,90.11L110.81,90.15C110.93,90.5 111.33,91.75 111.33,92.93C111.33,93.12 111.22,93.87 110.9,94.48C110.86,94.55 110.84,94.62 110.81,94.68C110.75,94.84 110.7,94.94 110.58,94.94C110.54,94.94 110.49,94.93 110.43,94.91C110.27,94.85 110.16,94.8 110.06,94.76C109.9,94.69 109.77,94.63 109.53,94.56C109.14,94.45 108.62,94.45 108.6,94.45C108.6,94.45 107.65,94.64 107.31,94.18C107.15,93.96 107.07,93.7 107,93.46C106.91,93.16 106.83,92.9 106.6,92.83C106.5,92.8 106.43,92.76 106.35,92.72C106.38,92.68 106.41,92.64 106.43,92.6C106.76,92.12 106.85,91.92 106.91,91.52C106.97,91.12 106.9,90.37 106.79,90.03C106.59,89.38 106.2,88.75 106.08,88.57C105.88,88.26 104.59,87.74 104.28,87.74L104.26,87.74C104.18,87.74 104.16,87.8 104.15,87.82C104.11,88.03 104.93,88.52 105.03,88.58C105.5,88.85 105.95,89.68 106.09,90.14C106.21,90.55 105.85,91.65 105.79,91.84C105.62,91.9 104.67,92.21 104.19,92.03C103.89,91.92 103.64,91.78 103.37,91.64C103.16,91.52 102.93,91.4 102.67,91.29C102.26,91.11 101.54,90.33 101.17,89.92C101.3,89.3 101.62,88.68 101.63,88.67L101.63,88.68ZM102.28,91.75C102.63,91.86 102.8,92.1 102.96,92.3C103,92.35 103.03,92.38 103.06,92.42C103.13,93.14 103.26,94.31 103.38,94.78C103.45,95.06 103.55,95.3 103.64,95.51C103.77,95.82 103.88,96.09 103.84,96.37C103.79,96.68 103.81,97.19 103.83,97.55C102.67,97.59 102.48,97.46 102.47,97.45C102.28,97.21 101.9,94.49 101.68,92.71L101.35,91.33C101.62,91.47 101.96,91.63 102.29,91.73L102.28,91.75ZM104.36,95.99L104.3,95.75C104.14,95.16 103.94,94.43 103.95,93.99C103.95,93.62 103.91,93.06 103.88,92.75C104.07,92.84 104.29,92.96 104.49,93.08C104.71,93.21 104.92,93.33 105.1,93.41C105.19,93.45 105.27,93.46 105.36,93.46C105.4,93.46 105.43,93.44 105.47,93.43C105.41,93.6 105.36,93.77 105.32,93.86C105.19,94.14 105.18,94.69 105.18,95.08C105.18,95.47 105.28,96.2 105.4,96.49C105.47,96.65 105.57,97.08 105.65,97.42C105.25,97.46 104.9,97.49 104.59,97.52C104.56,97.14 104.49,96.44 104.37,95.99L104.36,95.99ZM107.2,98.65L107.2,98.63C106.98,98.32 106.89,97.93 106.88,97.86C106.9,97.75 106.87,97.66 106.8,97.58C106.8,97.58 106.78,97.57 106.77,97.56L106.71,97.51C106.71,97.51 106.09,97.01 106.09,96.38C106.09,96.1 106.01,95.74 105.95,95.39C105.85,94.9 105.76,94.4 105.87,94.25C105.98,94.1 106.21,93.95 106.4,93.84C106.59,94.02 106.76,94.2 106.85,94.34C106.9,94.4 106.94,94.47 106.98,94.53C107.25,94.92 107.51,95.3 108.11,95.34L108.22,95.34C108.71,95.38 108.97,95.41 109.46,95.58C109.14,95.6 108.79,95.65 108.63,95.81C108.37,96.08 108.01,96.5 107.94,96.99C107.89,97.31 107.97,97.69 108.06,98.13L108.08,98.21C108.1,98.33 108.17,98.46 108.23,98.57C108,98.73 107.79,98.92 107.62,99.09C107.28,98.92 107.21,98.68 107.21,98.67L107.2,98.65ZM129.97,111.99C129.97,111.99 129.91,112.02 129.87,112.02L129.79,112.02C127.39,112.49 126.6,112.19 126.36,111.86C126.19,111.62 126.29,111.31 126.34,111.19C126.4,111.19 126.51,111.1 127.03,109.39C127.22,108.86 126.71,108.19 126.64,108.11C126.56,107.91 125.73,106.98 125.47,106.69C125.5,106.65 125.53,106.6 125.55,106.58L125.58,106.58C125.84,106.54 126.66,106.36 126.69,106.35C128.4,106.14 129.86,106.15 130.29,108.48C130.25,108.65 129.82,110.4 129.95,112.01L129.97,111.99ZM93.99,75.16L93.16,76.44C93.16,76.44 93.07,76.6 92.96,76.82C92.84,76.84 92.67,76.85 92.45,76.76C92.17,76.65 91.39,75.87 90.76,75.23C90.68,75.15 90.62,75.09 90.55,75.02C90.66,74.96 90.81,74.89 91.02,74.84C91.09,74.82 91.15,74.82 91.21,74.81C91.66,75.1 92.29,75.29 93.2,75.1C93.23,75.1 93.76,75.05 94.1,75C94.04,75.08 93.98,75.15 93.98,75.15L93.99,75.16ZM90.51,74.11C90.28,74.17 90.08,74.31 89.94,74.43C89.9,74.39 89.83,74.33 89.8,74.31C88.95,73.73 87.9,73.95 87.35,74.13C87.17,74.19 86.87,74.36 86.53,74.58C86.4,74.58 86.25,74.53 86.12,74.4L85.99,74.27C85.58,73.86 85.17,73.45 85.06,73.39C84.7,73.16 84.26,73.02 83.98,72.93L84.12,72.77L84.41,72.36C84.41,72.36 84.87,71.68 85.34,71.35L85.43,71.3C85.74,71.15 86.1,70.97 86.44,70.97L86.46,70.97L88.28,71.11C88.28,71.11 89.49,71.11 89.72,72.07L90.34,73.75C90.34,73.75 90.4,73.91 90.53,74.1L90.51,74.11ZM83.47,73.67C83.85,73.71 84.31,73.84 84.76,74.17C85.04,74.38 85.5,74.85 85.75,75.11C85.1,75.58 84.46,76.09 84.24,76.31C84.1,76.45 83.92,76.63 83.75,76.82C81.96,76.52 80.93,77.37 80.65,77.65C79.7,78.61 78.65,78.62 78.04,78.38C78.37,78.11 78.82,77.75 79.08,77.54C79.55,77.17 80.02,76.52 80.46,75.88C80.93,75.21 82.61,74.04 82.61,74.04L83.47,73.67ZM92.53,108.92L92.28,108.92C90.81,108.92 89.83,108.55 89.35,107.83C88.61,106.71 89.35,105.09 89.35,105.07L89.81,103.95C89.88,103.75 89.98,103.77 90.17,103.8C90.23,103.81 90.3,103.82 90.37,103.83L90.43,103.83C90.63,103.83 90.75,103.78 90.79,103.68C90.89,103.46 90.58,103.12 90.54,103.09C90.35,102.89 90.15,102.55 90.16,102.2C90.16,101.97 90.27,101.75 90.47,101.57L90.49,101.55L90.49,101.53C90.49,101.53 90.49,101.44 90.45,101.41C90.36,101.33 90.15,101.36 90.12,101.36L90.1,101.36C89.49,101.77 89.22,101.45 89.21,101.44C89.1,101.27 89.06,101.1 89.09,100.95C89.14,100.7 89.37,100.56 89.37,100.56L89.38,100.56C89.38,100.56 89.71,100.22 90.87,100.53C91.16,100.61 91.85,100.53 91.88,100.53C92.43,100.43 92.42,99.99 92.42,99.98L92.42,99.95L92.4,99.93C92.11,99.72 91.98,99.61 91.9,99.54C91.8,99.45 91.76,99.42 91.58,99.34C91.49,99.31 91.43,99.38 91.36,99.47C91.21,99.67 90.95,99.99 90.22,99.48C89.68,98.97 89.56,98.98 89.46,98.99C89.33,98.99 89.23,98.99 89.15,99C88.83,99.02 88.79,99.03 88.66,98.55L88.61,96.11L88.63,95.45L89.65,95.58C90.17,95.76 90.5,95.75 90.64,95.74C90.7,95.76 91.03,95.67 91.24,95.46C91.43,95.27 91.61,94.93 91.38,94.37L91.33,94.24L91.28,94.37C91.02,95.01 89.75,94.87 89.6,94.85C88.54,94.09 87.11,94.44 87.06,94.46C86.52,94.54 86.17,94.46 86.01,94.24C85.75,93.87 86.1,93.21 86.1,93.21L87.88,90.39C87.88,90.39 89.83,87.66 90.86,85.91L90.86,85.89C91.08,84.12 91.39,83.36 91.43,83.28C92.16,82.47 92.39,81.75 92.43,81.62C93.46,78.22 93.64,77.51 93.64,77.5C93.77,76.96 94.45,75.84 95.23,75.69C95.3,75.69 95.39,75.67 95.51,75.65C96.01,75.58 96.86,75.47 97.13,75.52C97.2,75.53 97.29,75.54 97.39,75.55C97.89,75.61 98.72,75.7 99.93,76.22C101.09,76.57 100.32,79.5 100.32,79.52L98.6,83.25C98.43,83.58 99.07,84.15 99.13,84.2C99.23,84.34 100.09,85.41 100.14,85.46C100.14,85.46 100.96,86.21 100.84,87.6C100.94,88.49 100.73,88.84 100.52,89.22C100.43,89.38 100.33,89.55 100.25,89.76L100.25,89.78C100.2,90.56 100.58,92.03 100.6,92.1C100.6,92.11 100.61,92.14 100.62,92.15C100.24,92.44 99.58,92.88 98.5,93.3C98.27,93.39 98,93.49 97.73,93.59C96.3,94.12 95.85,94.31 95.85,94.46C95.85,94.48 95.85,94.52 95.9,94.55C96,94.63 96.25,94.65 96.51,94.65C96.79,94.65 97.09,94.62 97.25,94.59C97.63,94.51 98.7,94.16 99.07,94.01C99.34,93.91 100.35,93.47 100.88,93.24C100.96,93.61 101.04,94.01 101.11,94.36C100.92,94.47 100.7,94.59 100.5,94.68C100.16,94.83 99.67,95.09 99.3,95.27C99.13,95.36 98.99,95.43 98.9,95.47C98.72,95.56 98.03,95.98 98.01,96.11C98.01,96.14 98.01,96.17 98.04,96.2C98.13,96.3 98.41,96.42 98.58,96.42L98.61,96.42C98.73,96.41 99.19,96.22 99.83,95.95C100.03,95.87 100.21,95.79 100.35,95.73C100.66,95.61 101.03,95.43 101.28,95.31C101.28,95.33 101.29,95.37 101.29,95.37C101.45,97.66 101.56,98.1 101.63,98.18C101.82,98.4 103.13,98.37 105.64,98.22C106.74,98.74 106.91,99.57 106.99,99.93L106.75,100.6C106.38,101.53 104.9,105.6 104.89,105.63C104.84,105.72 104.8,105.83 104.75,105.94C104.52,106.48 104.24,107.14 103.05,107.37C101.82,107.84 101.08,108.04 99.63,108.3C97.22,108.85 95.49,108.85 95.47,108.85L92.5,108.91L92.53,108.92ZM98.1,109.8C98.07,109.73 98.06,109.71 98.06,109.64C98.06,109.51 98.65,109.37 99.2,109.32C104.43,108.42 105.18,107.03 105.46,106.5C105.49,106.45 105.51,106.4 105.54,106.36C106.44,104.78 108.01,100.19 108.1,99.94C108.17,99.87 108.66,99.3 109.06,99.19C109.6,99.03 110.11,99.59 110.11,99.59L110.13,99.59C110.38,99.75 111.43,100.57 111.44,100.58C111.84,100.87 112.73,101.08 112.77,101.09C113.03,101.15 113.83,101.45 114.31,101.63C114.51,101.71 114.65,101.76 114.7,101.78C114.84,101.82 115.49,102.25 115.53,102.37C115.55,102.42 115.59,102.47 115.65,102.52C115.69,102.65 115.73,102.81 115.72,102.96L115.39,103.23L111.02,106.42C107.55,109.11 102.97,114.94 102.92,115L100.35,118.22L100.02,118.71L99.68,116.93L98.6,111.96C98.31,110.34 98.16,109.96 98.09,109.8L98.1,109.8ZM130.5,117.31C130.25,117.1 129.88,116.78 129.46,116.33C128.57,115.39 127.67,114.71 126.64,114.2C126.53,114.15 126.43,114.09 126.32,114.04C125.36,113.57 124.38,113.09 124.09,112.36C123.94,111.99 124.06,111.75 124.2,111.44C124.37,111.08 124.56,110.67 124.38,109.96C124.17,109.14 123.99,108.46 123.89,108.06C124.34,107.86 124.54,107.7 124.55,107.68C124.68,107.6 124.82,107.46 124.96,107.32C125.09,107.53 125.25,107.78 125.31,107.9L125.31,107.92C125.31,107.92 126.09,108.63 126.22,109.14C126.14,109.38 125.39,111.26 125.38,111.28C125.2,112.01 125.22,112.5 125.46,112.75C125.62,112.92 125.9,112.98 126.24,112.9L130.65,113.16C131.41,114.38 131.43,115.4 131.39,115.83L131.39,115.87C131.39,115.92 131.39,116.1 130.75,116.9C130.74,116.92 130.63,117.09 130.5,117.31Z" style="fill:rgb(0,55,108);fill-rule:nonzero;"/>
                <path d="M79.2,94.98C79.24,94.67 79.22,94.27 79.21,94.01L79.21,93.79C79.21,93.7 79.26,93.59 79.33,93.56C79.4,93.52 79.52,93.51 79.7,93.52L79.82,93.52C79.97,93.54 80.14,93.55 80.31,93.57C80.51,93.6 80.93,93.67 81.05,93.7C81.1,93.72 81.18,93.76 81.25,93.8C81.34,93.85 81.44,93.91 81.55,93.95C81.6,93.97 81.67,93.99 81.75,94.02C81.99,94.1 82.35,94.23 82.47,94.31C82.62,94.42 83.01,94.87 83.08,94.96C83.15,95.07 83.31,95.27 83.38,95.34C83.46,95.42 83.63,95.53 83.81,95.58C83.99,95.63 84.23,95.58 84.24,95.58L84.33,95.56L84.27,95.49C84.22,95.43 83.86,94.87 83.58,94.43C83.29,93.98 83.11,93.7 83.08,93.66C83.01,93.58 82.88,93.51 82.67,93.45C82.59,93.43 82.46,93.39 82.33,93.35C82.23,93.32 82.13,93.28 82.05,93.26C81.96,93.23 81.81,93.16 81.64,93.08C81.5,93.02 81.36,92.95 81.24,92.9C81.18,92.88 81.11,92.84 81.02,92.81C80.74,92.69 80.37,92.52 80.07,92.49C79.7,92.45 78.41,92.54 78.27,92.6C78.14,92.66 78.06,92.79 78.07,92.91C78.07,92.98 78.12,93.11 78.2,93.33C78.23,93.4 78.25,93.47 78.27,93.53C78.27,93.53 78.35,93.77 78.38,93.96C78.4,94.16 78.41,94.75 78.38,95.07C78.35,95.36 78.3,95.49 78.23,95.65L78.21,95.7C78.17,95.8 78.03,95.99 77.92,96.14C77.75,96.37 77.74,96.4 77.75,96.44L77.77,96.47L77.85,96.47C78.05,96.47 78.65,96.41 78.76,96.31C78.87,96.2 79.13,95.39 79.18,94.96L79.2,94.98Z" style="fill:rgb(0,55,108);fill-rule:nonzero;"/>
                <path d="M82.53,95.76C82.53,95.76 82.47,95.7 82.43,95.66C82.3,95.53 82.19,95.44 82.14,95.41C82.11,95.39 82.04,95.33 81.98,95.28C81.92,95.23 81.87,95.18 81.83,95.16C81.78,95.12 81.69,95.06 81.63,95.02L81.56,94.97C81.56,94.97 81.25,94.76 81.18,94.74L81.16,94.74C81.1,94.71 80.92,94.64 80.88,94.62C80.87,94.62 80.84,94.59 80.81,94.56C80.76,94.52 80.71,94.47 80.66,94.44C80.59,94.4 80.11,94.3 80.01,94.29C79.89,94.29 79.67,94.45 79.62,94.51C79.59,94.56 79.6,94.64 79.62,94.7C79.63,94.74 79.67,94.87 79.75,94.91C79.79,94.93 79.89,94.97 79.99,95.01C79.95,95.15 79.89,95.35 79.88,95.5C79.86,95.71 79.85,95.95 79.88,96.09C79.91,96.23 80.07,96.48 80.17,96.59C80.27,96.7 80.48,96.76 80.49,96.76L80.52,96.76C80.56,96.76 80.61,96.76 80.66,96.71C80.72,96.65 80.73,96.56 80.71,96.43C80.66,96.17 80.66,96.08 80.65,95.92L80.65,95.83C80.64,95.7 80.74,95.52 80.82,95.37C80.87,95.39 80.94,95.42 80.97,95.44C81.11,95.53 81.47,95.81 81.57,95.91C81.6,95.94 81.65,95.97 81.69,96C81.83,96.08 81.91,96.14 81.87,96.29C81.81,96.54 81.65,96.65 81.5,96.72C81.35,96.79 81.13,96.88 80.99,96.92C80.84,96.97 80.47,97.02 80.36,97.03C80.21,97.05 79.95,97.07 79.95,97.07L79.93,97.07C79.93,97.07 79.75,97.15 79.74,97.25C79.73,97.36 79.86,97.42 79.87,97.42L80.37,97.42C80.37,97.42 80.54,97.41 80.67,97.41L81.17,97.41C81.31,97.39 81.57,97.31 81.7,97.25C81.86,97.19 82.53,96.81 82.6,96.76C82.67,96.7 82.75,96.59 82.78,96.52C82.82,96.44 82.8,96.28 82.76,96.18C82.72,96.07 82.56,95.82 82.47,95.74L82.53,95.76Z" style="fill:rgb(0,55,108);fill-rule:nonzero;"/>
                <path d="M92.69,85.44L92.73,85.44C92.99,85.44 93.95,85.67 94.38,85.8C94.79,85.92 94.96,85.99 95.08,86.07C95.19,86.15 95.67,86.58 95.97,86.88C96.09,87 96.2,87.06 96.3,87.11C96.43,87.18 96.52,87.23 96.54,87.4C96.54,87.44 96.57,87.5 96.7,87.54C96.75,87.55 96.8,87.56 96.85,87.56C97.01,87.56 97.19,87.51 97.27,87.41C97.33,87.34 97.34,87.26 97.29,87.17C97.22,87.02 97.2,86.99 97.15,86.97C97.13,86.96 97.08,86.93 96.92,86.71C96.75,86.48 96.56,86.32 96.34,86.13C96.26,86.07 96.18,86 96.1,85.92C95.7,85.57 95.53,85.44 95.33,85.33C95.31,85.32 95.28,85.3 95.24,85.28C94.92,85.09 94.08,84.59 92.99,84.56C92.73,84.56 92.08,84.97 92,85.01L91.96,85.03L92.1,85.42L92.13,85.42C92.13,85.42 92.47,85.47 92.69,85.44Z" style="fill:rgb(0,55,108);fill-rule:nonzero;"/>
                <path d="M96.75,88.98L96.94,88.98C97.08,88.97 97.11,88.92 97.14,88.86C97.16,88.82 97.19,88.77 97.31,88.71C97.37,88.68 97.37,88.63 97.36,88.61C97.29,88.46 96.14,88.4 95.93,88.5C95.83,88.54 95.63,88.59 95.43,88.63C95.15,88.69 94.86,88.75 94.73,88.84C94.67,88.88 94.57,88.92 94.46,88.96C94.21,89.05 93.92,89.16 93.95,89.39C93.95,89.44 93.98,89.48 94.02,89.51C94.06,89.53 94.11,89.55 94.18,89.55C94.37,89.55 94.66,89.45 94.99,89.34C95.07,89.31 95.15,89.28 95.21,89.27C95.4,89.21 95.46,89.2 95.59,89.18C95.69,89.16 95.84,89.14 96.11,89.08C96.53,88.99 96.65,89 96.77,89.01L96.75,88.98Z" style="fill:rgb(0,55,108);fill-rule:nonzero;"/>
                <path d="M94.22,87C94.54,87.09 95.11,87.5 95.26,87.67C95.25,87.67 95.24,87.68 95.23,87.69C95.12,87.76 94.88,87.88 94.66,87.99C94.16,88.24 94.02,88.32 94,88.38L94,88.43C94,88.44 94.02,88.46 94.05,88.47L94.09,88.47C94.34,88.47 95.29,88.19 95.48,88.08C95.69,87.95 95.82,87.69 95.83,87.68L95.83,87.66L95.78,87.35L95.77,87.35C95.72,87.25 95.65,87.13 95.55,87C95.37,86.76 94.41,86.24 94.1,86.19C94.08,86.19 92.45,85.92 92.27,86.1C92.11,86.25 92.22,86.66 92.23,86.71L92.23,86.75L92.34,86.75C92.42,86.75 92.62,86.75 92.86,86.77C92.86,86.94 92.86,87.15 92.88,87.29C92.88,87.33 92.89,87.37 92.9,87.41C92.92,87.58 92.94,87.71 93.07,87.92C93.09,87.95 93.11,87.98 93.13,88.01C93.2,88.12 93.25,88.21 93.4,88.21C93.43,88.21 93.46,88.21 93.5,88.2C93.69,88.16 93.68,87.95 93.67,87.73C93.67,87.61 93.67,87.49 93.68,87.38C93.73,87.16 93.82,87.02 93.91,86.91C94.02,86.93 94.13,86.95 94.24,86.98L94.22,87Z" style="fill:rgb(0,55,108);fill-rule:nonzero;"/>
            </g>
        </g>
    </g>
</svg>
