<?xml version="1.0" encoding="UTF-8" standalone="no"?>
<!DOCTYPE svg PUBLIC "-//W3C//DTD SVG 1.1//EN" "http://www.w3.org/Graphics/SVG/1.1/DTD/svg11.dtd">
<svg width="100%" height="100%" viewBox="0 0 308 312" version="1.1" xmlns="http://www.w3.org/2000/svg" xmlns:xlink="http://www.w3.org/1999/xlink" xml:space="preserve" xmlns:serif="http://www.serif.com/" style="fill-rule:evenodd;clip-rule:evenodd;stroke-miterlimit:10;">
    <g id="Artboard1" transform="matrix(0.948705,0,0,0.962659,-201.358,-201.756)">
        <rect x="212.246" y="209.582" width="324.393" height="323.164" style="fill:none;"/>
        <clipPath id="_clip1">
            <rect x="212.246" y="209.582" width="324.393" height="323.164"/>
        </clipPath>
        <g clip-path="url(#_clip1)">
            <g transform="matrix(1.05407,0,0,1.03879,-28.7567,-22.3489)">
                <g>
                    <g>
                        <g>
                            <circle cx="424.3" cy="258.5" r="28.5" style="fill:rgb(0,138,103);stroke:rgb(0,138,103);stroke-width:10px;"/>
                            <path d="M444.4,319.4C433.3,308.3 415.3,308.3 404.1,319.4C393.7,329.8 377.1,330.5 366,321.3C365.3,320.5 364.6,319.6 363.8,318.8C352.7,307.7 352.7,289.7 363.8,278.5C374.9,267.4 374.9,249.4 363.8,238.2C352.7,227 334.7,227.1 323.5,238.2C312.3,249.3 312.4,267.3 323.5,278.5C334.6,289.6 334.6,307.6 323.5,318.8C316.9,325.4 314.2,334.5 315.5,343.1C316.3,349.1 319,355 323.6,359.6C334.7,370.7 352.7,370.7 363.9,359.6C375.1,348.5 393,348.5 404.2,359.6C415.4,370.7 433.3,370.7 444.5,359.6C455.7,348.5 455.5,330.6 444.4,319.4Z" style="fill:rgb(42,76,223);fill-rule:nonzero;stroke:rgb(42,76,223);stroke-width:10px;"/>
                        </g>
                        <g>
                            <g>
                                <g>
                                    <path d="M268.2,533.1C262.7,533.1 257.7,532.1 253.1,530.1C248.5,528.1 244.5,525.3 241.1,521.8C237.7,518.2 235.1,514 233.3,509.1C231.4,504.2 230.5,498.9 230.5,493.1C230.5,487.4 231.4,482.1 233.3,477.2C235.2,472.3 237.8,468.1 241.1,464.6C244.5,461.1 248.5,458.3 253.1,456.3C257.7,454.3 262.8,453.3 268.2,453.3C273.6,453.3 278.7,454.3 283.3,456.3C287.9,458.3 291.9,461 295.3,464.6C298.7,468.1 301.3,472.3 303.2,477.2C305.1,482.1 306,487.4 306,493.1C306,498.9 305.1,504.2 303.2,509.1C301.3,514 298.7,518.2 295.3,521.8C291.9,525.4 287.9,528.2 283.3,530.1C278.7,532.1 273.7,533.1 268.2,533.1ZM268.2,514.9C271.9,514.9 275,514 277.6,512.2C280.2,510.4 282.2,507.8 283.7,504.5C285.2,501.2 285.9,497.4 285.9,493.1C285.9,488.8 285.2,485 283.7,481.8C282.2,478.6 280.2,476.1 277.6,474.2C275,472.4 271.8,471.5 268.2,471.5C264.6,471.5 261.5,472.4 258.8,474.2C256.1,476 254.1,478.5 252.6,481.8C251.1,485.1 250.4,488.8 250.4,493.2C250.4,497.5 251.1,501.3 252.6,504.6C254.1,507.9 256.1,510.4 258.8,512.3C261.5,514 264.6,514.9 268.2,514.9Z" style="fill:rgb(0,138,103);fill-rule:nonzero;"/>
                                    <path d="M310.3,531.3C314.2,518.8 318.1,506.1 322,493.2C325.9,480.4 329.8,467.7 333.7,455.1L360.5,455.1C364.4,467.6 368.3,480.3 372.2,493.2C376.1,506 380,518.7 383.9,531.3L364.2,531.3C363.5,528.9 362.7,526.5 362.1,524.1C361.4,521.7 360.7,519.3 360,516.9L334.4,516.9C333.7,519.3 332.9,521.7 332.3,524.1C331.6,526.5 330.9,528.9 330.2,531.3L310.3,531.3ZM339.2,500.1L355,500.1C353.7,495.7 352.4,491.3 351.1,486.8C349.8,482.3 348.4,477.9 347.2,473.5C345.9,477.9 344.6,482.3 343.2,486.8C341.8,491.3 340.5,495.7 339.2,500.1Z" style="fill:rgb(0,138,103);fill-rule:nonzero;"/>
                                    <path d="M442.4,508.3C442.4,514 440.9,518.6 438,522.1C435,525.6 431.1,528.2 426.1,529.8C421.1,531.4 415.6,532.1 409.5,531.9C403.4,531.7 397.1,530.8 390.8,529L390.8,509.8C396.6,511.9 401.9,513.2 406.7,513.7C411.5,514.2 415.3,514 418.1,513.1C420.9,512.2 422.4,510.6 422.4,508.3C422.4,506.7 421.6,505.4 420,504.4C418.4,503.4 416.4,502.5 413.9,501.7C411.4,500.9 408.8,499.9 406,498.8C403.2,497.7 400.6,496.3 398.1,494.7C395.6,493 393.6,490.8 392,488.1C390.4,485.4 389.6,482 389.6,477.9C389.6,472.8 390.9,468.5 393.6,465C396.3,461.5 399.9,458.8 404.5,457C409.1,455.2 414.3,454.3 420.2,454.3C426.1,454.3 432.1,455.2 438.4,457L438.4,476.2C433.2,474 428.4,472.6 424,472.1C419.6,471.6 416.1,471.8 413.5,472.8C410.9,473.7 409.6,475.2 409.6,477.3C409.6,478.8 410.4,480 412,481C413.6,482 415.6,482.8 418.1,483.6C420.6,484.4 423.2,485.3 426,486.4C428.8,487.5 431.4,488.9 433.9,490.7C436.4,492.5 438.4,494.7 440,497.5C441.6,500.4 442.4,504 442.4,508.3Z" style="fill:rgb(0,138,103);fill-rule:nonzero;"/>
                                    <path d="M452,531.3L452,455.1L471.6,455.1L471.6,531.3L452,531.3Z" style="fill:rgb(0,138,103);fill-rule:nonzero;"/>
                                    <path d="M535.7,508.3C535.7,514 534.2,518.6 531.3,522.1C528.4,525.6 524.4,528.2 519.4,529.8C514.4,531.4 508.9,532.1 502.8,531.9C496.7,531.7 490.4,530.8 484.1,529L484.1,509.8C489.9,511.9 495.2,513.2 500,513.7C504.8,514.2 508.6,514 511.4,513.1C514.2,512.2 515.7,510.6 515.7,508.3C515.7,506.7 514.9,505.4 513.3,504.4C511.7,503.4 509.7,502.5 507.2,501.7C504.7,500.9 502.1,499.9 499.3,498.8C496.5,497.7 493.9,496.3 491.4,494.7C488.9,493 486.9,490.8 485.3,488.1C483.7,485.4 482.9,482 482.9,477.9C482.9,472.8 484.2,468.5 486.9,465C489.6,461.5 493.2,458.8 497.8,457C502.4,455.2 507.6,454.3 513.5,454.3C519.4,454.3 525.4,455.2 531.7,457L531.7,476.2C526.5,474 521.7,472.6 517.3,472.1C512.9,471.6 509.4,471.8 506.8,472.8C504.2,473.7 502.9,475.2 502.9,477.3C502.9,478.8 503.7,480 505.3,481C506.9,482 508.9,482.8 511.4,483.6C513.9,484.4 516.5,485.3 519.3,486.4C522.1,487.5 524.7,488.9 527.2,490.7C529.7,492.5 531.7,494.7 533.3,497.5C534.9,500.4 535.7,504 535.7,508.3Z" style="fill:rgb(0,138,103);fill-rule:nonzero;"/>
                                </g>
                            </g>
                            <g>
                                <g>
                                    <path d="M246.2,443.9L246.2,389.5L260.3,389.5C263.1,394.6 266,399.7 268.9,404.9C271.8,410.1 274.7,415.2 277.5,420.3L277.5,389.5L291.3,389.5L291.3,443.9L277.2,443.9C274.4,438.8 271.5,433.7 268.6,428.5C265.7,423.3 262.8,418.2 260,413.1L260,443.9L246.2,443.9Z" style="fill:rgb(42,76,223);fill-rule:nonzero;"/>
                                    <path d="M323.4,445.2C319.5,445.2 315.9,444.5 312.6,443.1C309.3,441.7 306.4,439.7 304,437.1C301.6,434.5 299.7,431.5 298.4,428C297.1,424.5 296.4,420.7 296.4,416.6C296.4,412.5 297.1,408.7 298.4,405.2C299.7,401.7 301.6,398.7 304,396.2C306.4,393.7 309.3,391.7 312.6,390.3C315.9,388.9 319.5,388.2 323.4,388.2C327.3,388.2 330.9,388.9 334.2,390.3C337.5,391.7 340.3,393.7 342.8,396.2C345.2,398.7 347.1,401.7 348.4,405.2C349.7,408.7 350.4,412.5 350.4,416.6C350.4,420.7 349.7,424.5 348.4,428C347.1,431.5 345.2,434.5 342.8,437.1C340.4,439.7 337.5,441.6 334.2,443.1C330.8,444.5 327.3,445.2 323.4,445.2ZM323.4,432.2C326,432.2 328.3,431.5 330.1,430.2C332,428.9 333.4,427.1 334.5,424.7C335.5,422.4 336.1,419.6 336.1,416.5C336.1,413.4 335.6,410.7 334.5,408.4C333.4,406.1 332,404.3 330.1,403C328.2,401.7 326,401 323.4,401C320.8,401 318.6,401.6 316.7,402.9C314.8,404.2 313.3,406 312.3,408.3C311.3,410.6 310.7,413.3 310.7,416.4C310.7,419.5 311.2,422.2 312.3,424.6C313.3,426.9 314.8,428.8 316.7,430.1C318.6,431.6 320.8,432.2 323.4,432.2Z" style="fill:rgb(42,76,223);fill-rule:nonzero;"/>
                                    <path d="M355.4,443.9L355.4,389.5L375.4,389.5C376.9,394.9 378.5,400.4 380,406C381.5,411.6 383,417.1 384.5,422.5C386,417.1 387.5,411.6 389,406C390.5,400.4 392,394.9 393.5,389.5L413.2,389.5C413.3,398.5 413.3,407.5 413.4,416.7C413.5,425.9 413.5,434.9 413.6,443.9L400,443.9L400,407.1C398.4,413.2 396.8,419.3 395.1,425.5C393.4,431.7 391.8,437.9 390.2,443.9L378.1,443.9C376.5,437.9 374.9,431.9 373.3,425.8C371.7,419.7 370.1,413.7 368.5,407.7L368.5,443.9L355.4,443.9Z" style="fill:rgb(42,76,223);fill-rule:nonzero;"/>
                                    <path d="M418.9,443.9C421.7,434.9 424.5,425.9 427.3,416.7C430.1,407.5 432.9,398.5 435.7,389.5L454.9,389.5C457.7,398.5 460.5,407.5 463.3,416.7C466.1,425.9 468.9,434.9 471.7,443.9L457.6,443.9C457.1,442.2 456.6,440.5 456.1,438.7C455.6,437 455.1,435.2 454.6,433.5L436.2,433.5C435.7,435.2 435.2,436.9 434.7,438.7C434.2,440.4 433.7,442.2 433.2,443.9L418.9,443.9ZM439.5,421.7L450.7,421.7C449.8,418.6 448.9,415.4 447.9,412.2C446.9,409 446,405.8 445.1,402.7C444.2,405.8 443.2,409 442.3,412.2C441.4,415.3 440.4,418.5 439.5,421.7Z" style="fill:rgb(42,76,223);fill-rule:nonzero;"/>
                                    <path d="M477.4,443.9L477.4,389.5L496.8,389.5C500.7,389.5 504.4,390.2 507.7,391.5C511,392.9 513.9,394.8 516.3,397.2C518.8,399.7 520.7,402.5 522,405.8C523.4,409.1 524,412.7 524,416.6C524,420.5 523.3,424.1 522,427.4C520.6,430.7 518.7,433.6 516.3,436.1C513.8,438.6 511,440.5 507.7,441.9C504.4,443.3 500.8,443.9 496.8,443.9L477.4,443.9ZM496.8,402.1L491.5,402.1L491.5,431.3L496.8,431.3C499.5,431.3 501.8,430.7 503.8,429.4C505.8,428.1 507.3,426.4 508.4,424.2C509.5,422 510,419.5 510,416.7C510,413.9 509.5,411.4 508.4,409.3C507.3,407.1 505.8,405.4 503.8,404.1C501.8,402.8 499.5,402.1 496.8,402.1Z" style="fill:rgb(42,76,223);fill-rule:nonzero;"/>
                                </g>
                            </g>
                        </g>
                    </g>
                </g>
            </g>
        </g>
    </g>
</svg>
